<?xml version="1.0" encoding="utf-8"?>
<!-- Generator: Adobe Illustrator 16.0.0, SVG Export Plug-In . SVG Version: 6.00 Build 0)  -->
<!DOCTYPE svg PUBLIC "-//W3C//DTD SVG 1.1//EN" "http://www.w3.org/Graphics/SVG/1.1/DTD/svg11.dtd">
<svg version="1.1" xmlns="http://www.w3.org/2000/svg" xmlns:xlink="http://www.w3.org/1999/xlink" x="0px" y="0px" width="500px"
	 height="500px" viewBox="0 0 500 500" enable-background="new 0 0 500 500" xml:space="preserve">
<g id="BG">
	<path fill="#FFFFFF" stroke="#8FCCFF" stroke-width="30" stroke-miterlimit="10" d="M474.999,399.511
		c0,41.695-33.798,75.489-75.488,75.489H100.489C58.798,475,25,441.206,25,399.511V100.489C25,58.798,58.798,25,100.489,25h299.022
		c41.69,0,75.488,33.798,75.488,75.489V399.511z"/>
	<g>
		<defs>
			<path id="SVGID_1_" d="M1003.999,399.511c0,41.695-33.798,75.489-75.488,75.489H629.489C587.798,475,554,441.206,554,399.511
				V100.489C554,58.798,587.798,25,629.489,25h299.022c41.69,0,75.488,33.798,75.488,75.489V399.511z"/>
		</defs>
		<use xlink:href="#SVGID_1_"  overflow="visible" fill="#FFFFFF"/>
		<clipPath id="SVGID_2_">
			<use xlink:href="#SVGID_1_"  overflow="visible"/>
		</clipPath>
		<g clip-path="url(#SVGID_2_)">
			<g>
				<g>
					<path fill="#8FCCFF" d="M953.219,473.292c1.069,1.294,2.116,2.604,3.145,3.932c-1.955-2.53-3.909-5.06-5.863-7.59
						c8.686,11.347,15.916,23.793,21.484,36.951c-1.261-2.985-2.521-5.972-3.78-8.958c3.994,9.64,7.027,19.625,8.521,29.966
						c-0.447-3.323-0.894-6.646-1.34-9.969c0.962,7.255,1.122,14.525,0.176,21.79c0.447-3.322,0.894-6.646,1.34-9.969
						c-0.794,5.415-2.188,10.641-4.274,15.703c1.26-2.986,2.52-5.972,3.78-8.958c-1.971,4.536-4.428,8.75-7.382,12.716
						c1.955-2.53,3.909-5.061,5.864-7.59c-3.599,4.642-7.732,8.708-12.33,12.356c2.529-1.954,5.06-3.909,7.589-5.863
						c-6.17,4.724-12.875,8.592-20.023,11.635c2.986-1.261,5.973-2.521,8.958-3.78c-7.062,2.882-14.362,4.844-21.909,5.939
						c3.323-0.446,6.646-0.893,9.969-1.34c-9.608,1.265-19.242,1.094-28.843-0.154c3.322,0.446,6.646,0.893,9.969,1.339
						c-14.768-2.072-28.993-6.561-42.708-12.338c2.985,1.26,5.972,2.52,8.958,3.78c-38.732-16.587-71.512-42.655-105.191-67.382
						c-7.711-5.661-20.047-6.215-28.896-3.78c-9.374,2.578-17.501,8.851-22.412,17.233c-5.073,8.66-6.442,19.217-3.78,28.896
						c2.797,10.169,9.03,16.389,17.234,22.411c31.889,23.413,62.884,47.967,99.042,64.666c25.29,11.679,51.097,19.959,79.138,21.164
						c26.781,1.152,55.63-6.719,77.28-22.71c11.304-8.35,19.179-16.327,27.553-27.569c5.674-7.616,9.429-16.944,12.359-25.868
						c6.123-18.649,4.886-38.818,1.284-57.768c-5.753-30.271-22.481-58.444-41.878-81.925c-6.024-7.293-17.405-10.983-26.517-10.983
						c-9.906,0-19.516,3.982-26.517,10.983s-10.983,16.61-10.983,26.517C942.235,457.466,946.64,465.327,953.219,473.292
						L953.219,473.292z"/>
				</g>
				<g>
					<path fill="#FFFFFF" d="M958.861,467.649c0.703,0.852,1.398,1.71,2.086,2.575c1.722,2.197,0.713,0.89-3.025-3.923
						c0.544,0.711,1.076,1.432,1.607,2.152c1.689,2.289,3.295,4.638,4.863,7.011c3.632,5.5,6.902,11.234,9.882,17.111
						c1.489,2.938,2.861,5.936,4.167,8.96c-4.769-11.045,0.015,0.449,1.012,3.361c2.289,6.687,3.956,13.58,4.967,20.574
						c-0.352-2.616-0.703-5.231-1.055-7.848c0.962,7.255,1.122,14.525,0.176,21.79c0.352-2.615,0.703-5.231,1.055-7.848
						c-0.473,3.229-1.149,6.394-2.056,9.528c-0.404,1.398-0.896,2.77-1.4,4.135c-1.069,2.711-0.497,1.378,1.718-3.999
						c-0.443,1.02-0.943,2.014-1.443,3.006c-1.424,2.826-8.595,12.67-1.605,3.655c-2.265,2.921-4.868,5.564-7.588,8.059
						c-1.689,1.55-7.141,5.713,0.886-0.433c-1.847,1.414-3.789,2.697-5.746,3.951c-3.456,2.213-7.105,4.114-10.829,5.832
						c-4.519,2.085,7.87-3.077,1.082-0.538c-1.984,0.742-4.011,1.367-6.044,1.962c-4.017,1.175-8.136,1.973-12.274,2.573
						c2.616-0.352,5.232-0.703,7.848-1.055c-9.608,1.265-19.242,1.095-28.843-0.154c2.615,0.352,5.231,0.703,7.848,1.055
						c-7.276-1.021-14.423-2.621-21.478-4.667c-3.383-0.98-6.724-2.105-10.042-3.283c-1.674-0.594-3.333-1.228-4.99-1.866
						c-2.269-0.874-10.252-4.303-0.381-0.075c-14.395-6.164-28.114-13.852-41.378-22.145
						c-21.788-13.623-41.897-29.524-62.579-44.709c-13-9.544-32.895-2.204-40.39,10.591c-3.994,6.817-5.072,15.128-2.976,22.747
						c2.202,8.005,7.108,12.901,13.566,17.643c31.889,23.412,62.884,47.967,99.042,64.665c23.915,11.044,48.607,18.936,75.11,20.075
						c25.534,1.099,52.622-6.383,73.253-21.621c17.099-12.63,29.56-28.31,36.245-48.668c5.667-17.261,4.621-35.967,1.284-53.525
						c-5.491-28.894-21.291-55.966-39.826-78.403c-10.261-12.421-31.184-10.564-41.748,0c-5.512,5.511-8.646,13.076-8.646,20.874
						C950.215,455.191,953.682,461.38,958.861,467.649L958.861,467.649z"/>
				</g>
			</g>
			<g>
				<g>
					<path fill="#8FCCFF" d="M818.367,534.704c-5.541,5.473-11.459,10.524-17.612,15.294c2.53-1.954,5.06-3.908,7.589-5.863
						c-16.435,12.599-34.418,23.131-53.491,31.205c2.986-1.26,5.972-2.521,8.958-3.78c-14.52,6.034-29.607,10.558-45.208,12.694
						c3.323-0.446,6.646-0.893,9.969-1.339c-10.643,1.35-21.324,1.534-31.973,0.154c3.323,0.446,6.646,0.893,9.969,1.339
						c-8.292-1.187-16.323-3.309-24.078-6.483c2.986,1.261,5.972,2.521,8.958,3.78c-4.848-2.072-9.476-4.503-13.938-7.31
						c-17.317-10.894-41.235-3.741-51.307,13.453c-10.584,18.067-3.815,40.444,13.454,51.307
						c39.047,24.562,88.109,24.122,130.711,9.81c37.196-12.495,73.046-33.582,101.034-61.228c14.537-14.359,14.381-38.652,0-53.033
						C856.887,520.19,832.902,520.347,818.367,534.704L818.367,534.704z"/>
				</g>
				<g>
					<path fill="#FFFFFF" d="M824.01,540.347c-3.033,2.995-6.178,5.865-9.41,8.644c-1.759,1.512-3.558,2.977-5.367,4.428
						c-1.722,1.38-5.742,4.414,2.172-1.651c-0.98,0.751-1.973,1.486-2.965,2.222c-8.882,6.584-18.27,12.479-27.952,17.81
						c-4.93,2.714-9.974,5.214-15.083,7.571c-1.292,0.596-2.596,1.168-3.9,1.74c-5.147,2.258,6.996-2.893,1.784-0.767
						c-2.652,1.081-5.336,2.082-8.031,3.054c-11.18,4.028-22.76,6.939-34.534,8.552c2.616-0.351,5.232-0.702,7.848-1.054
						c-10.643,1.35-21.324,1.534-31.973,0.154c2.616,0.352,5.232,0.703,7.848,1.055c-6.426-0.921-12.697-2.391-18.845-4.48
						c-1.325-0.45-2.629-0.961-3.932-1.471c9.422,3.688,2.708,1.117,0.601,0.097c-3.031-1.467-5.94-3.172-8.788-4.964
						c-13.632-8.575-32.46-2.945-40.39,10.591c-8.332,14.224-3.004,31.839,10.591,40.39c37.325,23.478,83.9,22.665,124.563,9.005
						c35.891-12.058,70.512-32.505,97.512-59.176c11.444-11.304,11.321-30.427,0-41.748
						C854.332,528.921,835.452,529.044,824.01,540.347L824.01,540.347z"/>
				</g>
			</g>
			<g>
				<g>
					<path fill="#8FCCFF" d="M746.176,253.719c-9.025-0.352-18.021-1.058-26.977-2.231c3.323,0.446,6.646,0.893,9.969,1.339
						c-15.933-2.174-31.672-5.836-46.526-12.083c2.986,1.26,5.972,2.52,8.958,3.78c-8.944-3.838-17.434-8.589-25.152-14.536
						c2.53,1.955,5.06,3.909,7.589,5.864c-5.934-4.656-11.284-9.943-15.903-15.91c1.955,2.53,3.909,5.06,5.863,7.59
						c-4.299-5.661-7.848-11.793-10.625-18.337c1.26,2.986,2.521,5.972,3.78,8.958c-3.086-7.46-5.104-15.26-6.192-23.255
						c0.447,3.323,0.893,6.646,1.34,9.969c-1.305-10.163-1.105-20.411,0.202-30.563c-0.447,3.323-0.893,6.646-1.34,9.969
						c2-14.84,6.296-29.244,12.083-43.034c-1.26,2.986-2.521,5.972-3.781,8.958c7.65-18.006,17.785-34.858,29.735-50.333
						c-1.955,2.53-3.909,5.06-5.863,7.59c11.867-15.247,25.477-29.106,40.768-40.934c-2.53,1.955-5.06,3.909-7.589,5.864
						c8.698-6.667,17.895-12.64,27.634-17.673c18.144-9.377,23.375-34.37,13.454-51.307c-10.721-18.302-33.147-22.839-51.307-13.454
						c-28.658,14.811-54.246,37.146-74.298,62.311c-22.178,27.833-40.233,58.791-49.453,93.44
						c-4.219,15.855-6.619,32.765-6.077,49.188c0.642,19.432,5.202,36.627,13.042,54.224c15.44,34.654,49.905,56.697,84.66,68.247
						c22.99,7.64,47.907,10.419,72.006,11.357c20.438,0.796,37.5-17.66,37.5-37.5C783.676,270.175,766.596,254.514,746.176,253.719
						L746.176,253.719z"/>
				</g>
				<g>
					<path fill="#FFFFFF" d="M746.176,261.698c-9.025-0.352-18.021-1.058-26.977-2.231c2.616,0.352,5.232,0.702,7.848,1.054
						c-14.617-1.994-29.052-5.243-42.832-10.576c-0.623-0.244-1.244-0.492-1.863-0.744c-4.302-1.736,7.636,3.28,3.419,1.433
						c-1.47-0.644-2.921-1.331-4.366-2.03c-2.78-1.344-5.492-2.824-8.156-4.384c-2.539-1.486-4.999-3.104-7.404-4.796
						c-2.175-1.53-7.193-5.573,1.885,1.55c-1.093-0.857-2.155-1.753-3.209-2.658c-4.045-3.476-7.733-7.354-11.075-11.508
						c-1.719-2.182-0.655-0.803,3.192,4.135c-0.466-0.614-0.915-1.241-1.364-1.867c-0.743-1.037-1.446-2.101-2.14-3.171
						c-1.373-2.119-2.618-4.319-3.79-6.556c-0.582-1.111-1.123-2.242-1.654-3.378c-2.772-5.933,2.548,6.261,1.199,2.915
						c-0.936-2.32-1.738-4.691-2.469-7.083c-1.475-4.825-2.475-9.788-3.155-14.783c0.352,2.616,0.703,5.231,1.055,7.848
						c-1.305-10.163-1.105-20.411,0.202-30.563c-0.352,2.616-0.703,5.232-1.055,7.848c1.882-13.969,5.802-27.551,11.077-40.605
						c0.899-2.225,2.644-6.237-1.626,3.814c0.344-0.811,0.699-1.616,1.054-2.422c0.713-1.62,1.458-3.225,2.212-4.826
						c1.651-3.501,3.419-6.946,5.256-10.354c3.582-6.646,7.54-13.086,11.755-19.347c2.041-3.03,4.168-6.001,6.346-8.934
						c0.545-0.734,1.099-1.463,1.652-2.191c2.681-3.527-5.108,6.568-2.374,3.083c1.318-1.68,2.667-3.334,4.029-4.978
						c4.846-5.85,10.002-11.441,15.39-16.795c5.313-5.28,10.915-10.267,16.739-14.976c0.69-0.558,1.388-1.107,2.085-1.657
						c3.431-2.702-6.644,5.095-3.17,2.457c1.401-1.064,2.823-2.101,4.252-3.128c3.062-2.199,6.202-4.288,9.39-6.298
						c4.086-2.577,8.295-4.957,12.586-7.174c14.283-7.382,18.401-27.057,10.591-40.39c-8.439-14.407-26.094-17.979-40.39-10.591
						c-28.109,14.527-53.023,36.391-72.683,61.063c-21.293,26.722-38.558,56.685-47.401,89.919
						c-4.041,15.186-6.311,31.339-5.792,47.067c0.589,17.831,4.744,34.016,11.953,50.197c14.615,32.804,46.949,53.632,79.891,64.58
						c22.334,7.422,46.469,10.16,69.885,11.072c16.089,0.627,29.521-13.902,29.521-29.521
						C775.696,274.652,762.25,262.324,746.176,261.698L746.176,261.698z"/>
				</g>
			</g>
			<g>
				<g>
					<path fill="#8FCCFF" d="M1035.04-123.222c-0.547-16.876-4.319-31.937-11.854-46.993c-6.923-13.835-18.137-23.979-30.275-33.052
						c-9.893-7.394-22.341-12.221-34.259-15.145c-12.924-3.169-26.777-4.408-40.065-3.362
						c-56.041,4.412-110.228,38.22-136.612,88.276c-16.643,31.575-23.522,67.935-24.124,103.404
						c-0.375,22.119,4.181,44.69,11.825,65.392c6.96,18.849,16.12,36.665,24.569,54.848c3.909,8.412,13.781,14.86,22.412,17.234
						c9.679,2.662,20.235,1.293,28.896-3.78c8.383-4.911,14.655-13.038,17.233-22.412c2.869-10.431,0.627-19.412-3.78-28.896
						c-5.613-12.08-11.698-23.932-16.92-36.192c1.26,2.986,2.52,5.972,3.78,8.958c-6.044-14.398-10.763-29.229-13.025-44.711
						c0.446,3.323,0.893,6.646,1.339,9.969c-2.175-16.202-1.239-32.488,0.884-48.644c-0.447,3.323-0.893,6.646-1.34,9.969
						c2.177-15.931,5.932-31.596,12.17-46.446c-1.26,2.986-2.52,5.972-3.78,8.958c4.333-10.076,9.753-19.568,16.387-28.308
						c-1.954,2.53-3.909,5.06-5.863,7.59c6.601-8.517,14.206-16.076,22.701-22.701c-2.529,1.955-5.06,3.909-7.59,5.864
						c10.077-7.691,21.089-13.874,32.722-18.884c-2.986,1.26-5.972,2.521-8.958,3.781c10.274-4.314,20.732-7.486,31.783-9.032
						c-3.322,0.446-6.646,0.893-9.969,1.339c8.967-1.145,17.961-1.257,26.933-0.11c-3.323-0.447-6.646-0.893-9.969-1.34
						c7.167,1.017,14.12,2.819,20.806,5.611c-2.986-1.26-5.973-2.521-8.958-3.78c4.915,2.148,9.523,4.773,13.822,7.986
						c-2.53-1.955-5.06-3.909-7.59-5.864c3.875,3.012,7.329,6.401,10.384,10.243c-1.954-2.53-3.909-5.06-5.863-7.59
						c3.057,4.012,5.537,8.313,7.509,12.955c-1.26-2.986-2.521-5.972-3.78-8.958c2.026,5.059,3.358,10.264,4.131,15.657
						c-0.446-3.323-0.893-6.646-1.339-9.969c0.336,2.707,0.54,5.409,0.628,8.135c0.662,20.425,16.557,37.5,37.5,37.5
						C1017.48-85.722,1035.702-102.781,1035.04-123.222L1035.04-123.222z"/>
				</g>
				<g>
					<path fill="#FFFFFF" d="M1027.061-123.222c-0.497-15.328-3.914-29.275-10.764-42.965
						c-6.272-12.536-16.387-21.947-27.413-30.189c-19.315-14.437-46.733-19.272-70.297-17.417
						c-53.283,4.195-104.7,36.852-129.722,84.324c-15.973,30.303-22.458,65.352-23.034,99.377
						c-0.364,21.45,4.131,43.208,11.54,63.271c6.719,18.195,15.608,35.387,23.765,52.941c6.781,14.593,27.499,18.142,40.39,10.591
						c6.6-3.866,11.537-10.264,13.566-17.643c2.259-8.211,0.493-15.282-2.976-22.747c-2.605-5.607-5.326-11.16-8.012-16.729
						c-1.421-2.947-2.822-5.903-4.201-8.87c-0.809-1.738-1.596-3.484-2.379-5.233c-0.904-2.019-3.819-8.951,0.077,0.332
						c-5.844-13.923-10.269-28.393-12.455-43.352c0.352,2.616,0.703,5.232,1.055,7.848c-2.175-16.202-1.239-32.488,0.884-48.644
						c-0.352,2.616-0.703,5.232-1.055,7.848c1.851-13.545,4.835-26.889,9.516-39.748c0.548-1.504,1.137-2.993,1.732-4.479
						c1.805-4.504-3.482,7.93-0.602,1.533c1.485-3.299,3.142-6.519,4.887-9.687c1.564-2.84,3.274-5.598,5.05-8.31
						c0.896-1.369,1.838-2.706,2.787-4.038c4.179-5.865-4.644,5.709-0.092,0.078c4.566-5.65,9.719-10.804,15.202-15.559
						c1.344-1.165,2.73-2.28,4.121-3.388c-7.937,6.322-2.378,1.871-0.517,0.539c3.452-2.47,7.056-4.722,10.716-6.868
						c3.427-2.009,6.961-3.828,10.53-5.565c1.857-0.904,3.744-1.746,5.633-2.581c-9.294,4.104-0.258,0.177,1.874-0.63
						c7.829-2.965,16.023-4.891,24.306-6.049c-2.616,0.352-5.231,0.703-7.848,1.054c8.967-1.145,17.961-1.257,26.933-0.11
						c-2.616-0.352-5.231-0.703-7.848-1.055c6.39,0.907,12.607,2.434,18.643,4.728c4.5,1.71-7.925-3.607-1.727-0.648
						c1.381,0.66,2.722,1.4,4.054,2.153c1.32,0.746,2.592,1.573,3.854,2.411c5.732,3.806-5.849-4.931-0.598-0.516
						c2.296,1.93,4.377,4.101,6.336,6.368c3.062,3.543-5.053-7.008-1.187-1.473c1.097,1.57,2.06,3.229,2.986,4.902
						c0.757,1.367,1.412,2.787,2.052,4.21c-4.309-9.588-1.65-3.824-0.857-1.429c1.196,3.614,1.938,7.365,2.477,11.126
						c-0.352-2.616-0.702-5.232-1.054-7.848c0.336,2.707,0.54,5.409,0.628,8.135c0.521,16.079,13.034,29.521,29.521,29.521
						C1013.237-93.701,1027.582-107.131,1027.061-123.222L1027.061-123.222z"/>
				</g>
			</g>
			<g>
				<g>
					<path fill="#8FCCFF" d="M616.569-62.324c11.272-6.818,23.196-12.496,35.315-17.633c-2.986,1.26-5.972,2.521-8.958,3.78
						c33.146-13.912,68.187-23.859,103.826-28.696c-3.323,0.446-6.646,0.893-9.969,1.339c21.354-2.796,43.023-3.693,64.42-0.835
						c-3.323-0.446-6.646-0.893-9.969-1.339c20.917,2.972,41.372,9.072,60.827,17.245c-2.986-1.26-5.973-2.52-8.958-3.78
						c18.794,8.023,36.62,18.123,52.883,30.517c-2.529-1.955-5.06-3.909-7.589-5.864c12.502,9.664,23.915,20.604,33.646,33.074
						c-1.955-2.53-3.909-5.06-5.864-7.589c7.255,9.471,13.403,19.654,18.096,30.633c-1.261-2.986-2.521-5.972-3.78-8.958
						c5.079,12.258,7.982,25.28,9.801,38.397c-0.446-3.323-0.893-6.646-1.339-9.969c1.652,12.839,1.801,25.699,0.133,38.544
						c0.446-3.323,0.893-6.646,1.339-9.969c-2.189,15.55-6.924,30.45-12.958,44.911c1.26-2.986,2.521-5.972,3.78-8.958
						c-3.488,8.214-7.332,16.259-11.371,24.215c-9.254,18.227-4.943,40.531,13.453,51.307c16.84,9.865,42.061,4.76,51.307-13.454
						c7.717-15.2,14.786-30.832,20.455-46.917c5.217-14.807,7.845-30.014,9.525-45.601c3.395-31.478-3.806-63.844-16.117-92.648
						c-10.11-23.656-27.729-44.835-46.909-61.729c-20.66-18.198-44.008-33.161-69.253-44.112
						c-27.706-12.019-55.354-19.975-85.39-23.488c-27.444-3.209-55.413,0.037-82.503,4.587
						c-24.569,4.127-48.727,10.813-72.148,19.262c-21.793,7.861-43.707,16.946-63.583,28.968
						c-17.459,10.56-23.9,33.474-13.454,51.307C575.469-58.353,599.068-51.738,616.569-62.324L616.569-62.324z"/>
				</g>
				<g>
					<path fill="#FFFFFF" d="M612.542-69.214c8.323-5.034,17.007-9.423,25.844-13.478c2.334-1.071,4.687-2.103,7.045-3.122
						c4.922-2.128-7.165,2.993-2.162,0.914c1.672-0.695,3.353-1.369,5.035-2.041c5.7-2.277,11.462-4.394,17.257-6.418
						c25.627-8.954,52.164-15.556,79.07-19.208c-2.616,0.352-5.231,0.703-7.848,1.055c21.354-2.796,43.023-3.693,64.42-0.835
						c-2.616-0.352-5.232-0.703-7.848-1.055c19.928,2.832,39.428,8.517,58.052,16.089c2.819,1.169,1.854,0.759-2.896-1.229
						c1.383,0.59,2.756,1.205,4.128,1.819c2.288,1.024,4.551,2.101,6.808,3.191c4.506,2.178,8.928,4.527,13.295,6.969
						c9.08,5.077,17.787,10.81,26.103,17.057c-8.178-6.144-0.863-0.63,0.921,0.831c1.875,1.535,3.705,3.123,5.523,4.724
						c3.597,3.167,7.038,6.506,10.381,9.938c3.291,3.379,6.403,6.928,9.401,10.567c0.591,0.724,1.175,1.453,1.753,2.187
						c-5.929-7.461-2.5-3.233-1.244-1.531c1.644,2.228,3.193,4.522,4.709,6.838c2.499,3.82,4.755,7.794,6.858,11.844
						c1.044,2.01,2.002,4.062,2.938,6.124c1.204,2.752,0.745,1.646-1.379-3.315c0.518,1.25,0.993,2.516,1.469,3.782
						c4.007,10.67,6.252,22.103,7.814,33.364c-0.352-2.616-0.703-5.231-1.055-7.848c1.652,12.839,1.801,25.699,0.133,38.544
						c0.351-2.616,0.702-5.232,1.054-7.848c-1.573,11.177-4.438,22.037-8.187,32.674c-0.9,2.557-1.88,5.085-2.874,7.606
						c-0.705,1.789-3.114,7.454,0.417-0.864c-0.67,1.579-1.369,3.146-2.067,4.713c-2.702,6.065-5.637,12.026-8.643,17.946
						c-7.284,14.349-3.891,31.906,10.591,40.39c13.257,7.766,33.11,3.747,40.39-10.591c7.406-14.59,14.209-29.57,19.649-45.011
						c4.976-14.118,7.639-28.618,9.241-43.479c3.234-29.997-3.274-61.121-15.027-88.621c-9.866-23.085-26.947-43.629-45.661-60.114
						c-20.146-17.745-43.03-32.19-67.639-42.865c-26.275-11.397-52.881-19.067-81.363-22.398
						c-26.74-3.127-53.974-0.134-80.381,4.302c-24.569,4.127-48.727,10.813-72.148,19.261
						c-21.162,7.633-42.381,16.493-61.677,28.164c-13.744,8.313-18.814,26.351-10.591,40.39
						C580.188-66.088,598.765-60.881,612.542-69.214L612.542-69.214z"/>
				</g>
			</g>
			<g>
				<g>
					<path fill="#8FCCFF" d="M744.149,54.711c12.667-7.756,25.987-14.269,39.658-20.053c-2.986,1.26-5.972,2.521-8.958,3.78
						c45.235-18.9,92.757-31.244,138.995-47.262c52.274-18.11,121.625-48.987,121.196-114.398c-0.134-20.44-16.957-37.5-37.5-37.5
						c-20.341,0-37.634,17.057-37.5,37.5c0.015,2.232-0.098,4.427-0.348,6.645c0.446-3.323,0.893-6.646,1.34-9.969
						c-0.554,3.869-1.537,7.558-2.964,11.196c1.26-2.986,2.52-5.972,3.78-8.958c-1.896,4.467-4.342,8.549-7.261,12.42
						c1.955-2.53,3.909-5.06,5.863-7.589c-4.434,5.626-9.611,10.473-15.246,14.877c2.529-1.955,5.06-3.909,7.589-5.863
						c-12.72,9.671-27.058,16.871-41.709,23.121c2.986-1.26,5.972-2.52,8.958-3.78c-31.086,13.076-63.795,21.536-95.676,32.358
						c-40.221,13.653-81.612,26.393-118.071,48.714c-17.401,10.654-23.942,33.401-13.454,51.307
						C703.008,58.611,726.705,65.392,744.149,54.711L744.149,54.711z"/>
				</g>
				<g>
					<path fill="#FFFFFF" d="M740.122,47.821c6.056-3.708,12.255-7.145,18.583-10.366c3.174-1.616,6.394-3.143,9.623-4.645
						c1.619-0.753,3.25-1.48,4.881-2.207c1.768-0.789,9.746-4.132,1.173-0.55c13.845-5.785,28.022-10.752,42.222-15.583
						c23.992-8.161,48.072-15.879,72.249-23.464c27.582-8.653,55.399-18.306,80.711-32.44c25.022-13.973,50.752-36.27,55.91-66.004
						c0.902-5.202,1.621-10.494,1.587-15.785c-0.105-16.091-13.349-29.521-29.521-29.521c-16.013,0-29.626,13.427-29.521,29.521
						c0.015,2.232-0.098,4.427-0.348,6.645c0.352-2.616,0.703-5.231,1.055-7.848c-0.369,2.577-0.916,5.076-1.658,7.571
						c-0.636,2.138-2.722,6.927,1.167-2.241c-0.505,1.192-1.105,2.341-1.703,3.487c-1.221,2.341-2.704,4.536-4.244,6.674
						c6.179-8.577,0.256-0.636-1.627,1.324c-1.993,2.076-4.15,3.99-6.338,5.857c-1.551,1.323-6.08,4.703,1.298-0.907
						c-1.218,0.926-2.472,1.804-3.723,2.683c-5.246,3.684-10.813,6.901-16.457,9.928c-5.646,3.028-11.464,5.732-17.327,8.307
						c-5.594,2.456,6.687-2.771,1.024-0.423c-1.519,0.63-3.047,1.24-4.574,1.849c-3.064,1.222-6.151,2.386-9.244,3.535
						c-12.533,4.656-25.277,8.727-38.044,12.69c-23.957,7.436-47.758,15.242-71.49,23.378
						c-29.378,10.073-58.889,21.283-85.463,37.553c-13.698,8.387-18.848,26.294-10.591,40.39
						C707.735,50.891,726.389,56.229,740.122,47.821L740.122,47.821z"/>
				</g>
			</g>
			<g>
				<g>
					<path fill="#8FCCFF" d="M901.728,269.816c4.301,12.008,6.693,24.717,8.388,37.325c-0.446-3.323-0.893-6.646-1.339-9.969
						c3.368,25.658,3.155,51.72-0.206,77.366c0.446-3.323,0.893-6.646,1.34-9.969c-3.545,26.272-10.505,51.947-20.808,76.377
						c1.26-2.985,2.52-5.972,3.78-8.958c-10.046,23.517-23.093,45.559-38.691,65.815c1.955-2.53,3.909-5.06,5.864-7.59
						c-12.516,16.087-26.51,30.895-41.688,44.489c-15.232,13.644-13.853,39.181,0,53.033c15.042,15.041,37.82,13.626,53.033,0
						c22.126-19.818,41.529-42.409,58.332-66.898c14.874-21.678,26.254-45.338,35.674-69.837
						c14.768-38.407,21.445-80.72,20.749-121.807c-0.291-17.146-2.252-34.278-5.109-51.174c-1.61-9.517-3.738-19.044-6.998-28.143
						c-3.394-9.474-8.331-17.196-17.233-22.412c-8.66-5.073-19.217-6.442-28.896-3.78
						C909.335,228.799,894.828,250.56,901.728,269.816L901.728,269.816z"/>
				</g>
				<g>
					<path fill="#FFFFFF" d="M909.422,267.695c4.302,12.007,6.693,24.717,8.388,37.325c-0.352-2.616-0.702-5.232-1.054-7.848
						c3.368,25.658,3.155,51.72-0.206,77.366c0.352-2.616,0.703-5.231,1.055-7.848c-2.031,15.057-5.17,29.922-9.416,44.509
						c-2.284,7.851-4.948,15.587-7.883,23.218c-0.636,1.653-1.298,3.297-1.964,4.938c-2.837,6.995,2.871-6.579-0.179,0.38
						c-1.837,4.192-3.803,8.329-5.835,12.431c-8.242,16.634-18.188,32.391-29.361,47.204c-1.838,2.406-1.246,1.645,1.774-2.285
						c-0.642,0.822-1.288,1.64-1.938,2.455c-1.639,2.063-3.319,4.094-5.009,6.115c-3.461,4.141-7.058,8.166-10.72,12.129
						c-7.305,7.9-15.051,15.384-23.064,22.562c-11.991,10.74-10.905,30.843,0,41.748c11.841,11.841,29.772,10.727,41.748,0
						c40.943-36.672,72.248-81.963,91.954-133.214c14.53-37.791,21.149-79.252,20.464-119.686
						c-0.279-16.436-2.084-32.854-4.824-49.052c-1.61-9.518-3.738-19.044-6.998-28.144c-5.422-15.134-19.913-25.13-36.313-20.618
						C915.41,235.406,903.991,252.536,909.422,267.695L909.422,267.695z"/>
				</g>
			</g>
			<g>
				<g>
					<path fill="#8FCCFF" d="M635.742,300.109c0.029-7.076,0.48-14.117,1.395-21.134c-0.446,3.323-0.893,6.646-1.339,9.969
						c1.695-12.197,4.806-24.093,9.505-35.481c-1.26,2.985-2.521,5.972-3.781,8.958c4.285-10.128,9.749-19.647,16.46-28.364
						c-1.954,2.53-3.909,5.06-5.863,7.59c5.759-7.336,12.297-13.95,19.632-19.714c-2.53,1.955-5.06,3.909-7.59,5.863
						c7.141-5.5,14.869-10.082,23.157-13.63c-2.986,1.26-5.972,2.52-8.958,3.78c7.91-3.291,16.134-5.563,24.619-6.76
						c-3.323,0.446-6.646,0.893-9.969,1.339c8.652-1.125,17.337-1.098,25.984,0.052c-3.323-0.446-6.646-0.893-9.969-1.339
						c8.741,1.26,17.205,3.636,25.368,7c-2.986-1.26-5.972-2.52-8.958-3.78c9.672,4.104,18.647,9.491,26.986,15.871
						c-2.53-1.955-5.06-3.909-7.589-5.864c10.639,8.3,19.961,18.017,28.243,28.652c-1.955-2.53-3.909-5.06-5.863-7.59
						c0.928,1.212,1.846,2.431,2.754,3.658c6.069,8.193,12.21,14.427,22.412,17.234c9.679,2.662,20.235,1.293,28.896-3.78
						c8.383-4.911,14.655-13.038,17.234-22.412c2.424-8.814,1.902-21.225-3.78-28.896c-16.742-22.601-36.06-42.833-60.943-56.583
						c-21.133-11.678-45.25-18.311-69.454-18.073c-48.036,0.472-90.029,27.611-116.277,66.717
						c-18.83,28.054-27.171,63.259-27.309,96.718c-0.084,20.442,17.122,37.5,37.5,37.5
						C618.748,337.609,635.658,320.551,635.742,300.109L635.742,300.109z"/>
				</g>
				<g>
					<path fill="#FFFFFF" d="M627.763,300.109c0.029-7.076,0.48-14.117,1.395-21.134c-0.352,2.616-0.703,5.231-1.054,7.848
						c0.922-6.635,2.25-13.18,4.021-19.641c0.852-3.108,1.852-6.174,2.92-9.213c0.525-1.494,1.096-2.972,1.674-4.446
						c1.106-2.732,0.563-1.469-1.63,3.789c0.455-1.075,0.938-2.138,1.422-3.199c2.52-5.536,5.502-10.853,8.797-15.961
						c1.603-2.487,3.331-4.891,5.113-7.251c-7.112,9.417,0.324-0.113,2.386-2.368c3.836-4.194,8.042-8.039,12.474-11.593
						c-9.18,7.362-0.815,0.734,1.65-0.906c2.588-1.722,5.277-3.289,8.009-4.77c2.413-1.308,4.896-2.479,7.407-3.585
						c-10.996,4.843-1.302,0.657,1.564-0.297c5.509-1.833,11.201-3.081,16.946-3.891c-2.616,0.352-5.232,0.703-7.848,1.055
						c8.652-1.125,17.337-1.098,25.984,0.052c-2.616-0.351-5.232-0.703-7.848-1.054c6.86,0.989,13.552,2.657,20.09,4.954
						c2.418,0.85,9.533,3.868-0.72-0.483c1.777,0.754,3.521,1.583,5.255,2.428c3.581,1.745,7.039,3.732,10.422,5.832
						c1.751,1.086,3.458,2.242,5.152,3.413c2.002,1.384,8.537,6.476,0.142-0.074c3.481,2.715,6.789,5.647,10.002,8.672
						c3.399,3.2,6.605,6.599,9.709,10.083c1.623,1.82,3.182,3.695,4.727,5.582c0.628,0.773,1.25,1.551,1.865,2.335
						c-5.772-7.29-2.142-2.757-0.935-1.127c4.777,6.449,9.612,11.358,17.643,13.567c7.619,2.096,15.929,1.018,22.747-2.977
						c12.75-7.469,20.191-27.429,10.591-40.389c-15.909-21.476-34.462-40.669-58.08-53.721
						c-19.915-11.005-42.626-17.208-65.427-16.983c-45.106,0.443-84.732,26.033-109.387,62.765
						c-18.086,26.946-26.087,60.542-26.22,92.69c-0.066,16.093,13.479,29.521,29.521,29.521
						C614.384,329.63,627.697,316.201,627.763,300.109L627.763,300.109z"/>
				</g>
			</g>
			<g>
				<g>
					<path fill="#8FCCFF" d="M794.246,90.146c13.664,29.212,33.834,54.384,52.695,80.308c20.002,27.493,37.344,56.542,50.598,87.893
						c-1.26-2.985-2.521-5.972-3.78-8.958c2.817,6.747,5.472,13.555,7.97,20.426c3.445,9.478,8.299,17.178,17.233,22.411
						c8.66,5.073,19.217,6.443,28.896,3.78c18.516-5.093,33.181-26.902,26.191-46.129c-13.912-38.273-32.128-74.06-55.363-107.483
						c-20.595-29.624-44.282-57.189-59.679-90.103c-3.935-8.413-13.762-14.854-22.411-17.234c-9.679-2.662-20.235-1.293-28.896,3.78
						c-8.383,4.911-14.655,13.038-17.234,22.412C787.602,71.662,789.819,80.684,794.246,90.146L794.246,90.146z"/>
				</g>
				<g>
					<path fill="#FFFFFF" d="M801.136,86.119c15.136,32.359,38.248,59.692,58.691,88.694c10.552,14.968,20.381,30.496,29.023,46.645
						c4.288,8.012,8.23,16.205,11.952,24.494c0.996,2.219,1.958,4.453,2.915,6.688c-3.621-8.461-0.204-0.377,0.506,1.389
						c1.819,4.521,3.533,9.086,5.198,13.667c5.492,15.108,19.857,25.145,36.313,20.618c14.575-4.009,26.12-21.178,20.618-36.313
						c-13.673-37.614-31.725-72.73-54.559-105.577c-20.595-29.624-44.283-57.188-59.679-90.103
						c-6.817-14.575-27.473-18.157-40.39-10.591c-6.599,3.866-11.537,10.264-13.566,17.643
						C795.905,71.568,797.651,78.67,801.136,86.119L801.136,86.119z"/>
				</g>
			</g>
			<g>
				<g>
					<path fill="#8FCCFF" d="M775.828,256.773c24.707,22.177,51.416,39.953,82.573,51.552c22.029,8.201,46.719,11.311,70.132,9.729
						c22.005-1.487,43.505-6.27,64.482-12.885c17.239-5.436,34.149-11.89,51.54-16.85c8.455-2.411,17.041-4.377,25.756-5.567
						c-3.323,0.447-6.646,0.894-9.969,1.34c9.084-1.172,18.213-1.399,27.31-0.229c-3.323-0.446-6.646-0.893-9.969-1.339
						c3.271,0.458,6.499,1.083,9.704,1.881c19.819,4.938,40.613-6.137,46.129-26.191c5.318-19.334-6.362-41.188-26.191-46.129
						c-31.854-7.937-64.08-2.239-94.795,7.587c-27.621,8.836-54.666,19.706-83.58,23.654c3.323-0.447,6.646-0.893,9.97-1.339
						c-13.393,1.742-26.866,1.948-40.271,0.215c3.323,0.447,6.646,0.893,9.969,1.34c-12.687-1.755-24.972-5.205-36.801-10.102
						c2.985,1.26,5.972,2.52,8.958,3.78c-15.703-6.667-30.166-15.67-43.669-26.055c2.529,1.955,5.06,3.909,7.589,5.864
						c-5.436-4.244-10.701-8.682-15.833-13.289c-15.198-13.642-38.003-15.03-53.033,0
						C761.964,217.605,760.611,243.115,775.828,256.773L775.828,256.773z"/>
				</g>
				<g>
					<path fill="#FFFFFF" d="M781.471,251.132c23.59,21.174,49.278,38.416,79.052,49.499c21.414,7.973,45.253,10.981,68.011,9.444
						c21.284-1.438,42.073-6.202,62.361-12.6c17.239-5.436,34.149-11.89,51.54-16.85c8.454-2.411,17.04-4.377,25.756-5.567
						c-2.616,0.352-5.232,0.703-7.848,1.055c9.084-1.172,18.213-1.399,27.31-0.229c-2.616-0.352-5.231-0.703-7.848-1.055
						c3.271,0.459,6.499,1.083,9.704,1.882c15.603,3.888,31.972-4.831,36.313-20.618c4.187-15.22-5.009-32.424-20.618-36.313
						c-60.893-15.173-115.464,23.228-174.132,31.241c2.615-0.352,5.231-0.704,7.848-1.055c-13.393,1.741-26.866,1.948-40.271,0.216
						c2.616,0.351,5.232,0.703,7.848,1.055c-7.205-0.997-14.29-2.522-21.274-4.554c-3.927-1.142-7.786-2.504-11.604-3.965
						c-7.083-2.71,5.213,2.313,0.498,0.262c-2.238-0.974-4.44-2.028-6.633-3.099c-8.058-3.938-15.743-8.604-23.163-13.63
						c-1.89-1.28-3.744-2.611-5.593-3.948c-0.944-0.688-1.883-1.383-2.817-2.085c-5.153-3.844,5.416,4.271,0.297,0.216
						c-4.457-3.53-8.758-7.253-12.988-11.05c-11.964-10.739-29.916-11.832-41.748,0
						C770.557,220.297,769.491,240.379,781.471,251.132L781.471,251.132z"/>
				</g>
			</g>
			<g>
				<g>
					<path fill="#8FCCFF" d="M919.879,96.741c-12.75,26.212-28.213,51.149-45.989,74.246c1.954-2.53,3.909-5.06,5.863-7.59
						c-16.848,21.753-35.901,41.82-57.683,58.693c2.53-1.955,5.06-3.909,7.589-5.864c-15.005,11.503-31.179,21.348-48.566,28.816
						c2.986-1.26,5.972-2.52,8.958-3.78c-15.034,6.336-30.722,10.761-46.888,13.001c3.323-0.446,6.646-0.893,9.969-1.339
						c-2.315,0.302-4.632,0.566-6.955,0.794c-10.298,1.009-18.961,3.429-26.517,10.983c-7.001,7.001-10.983,16.61-10.983,26.517
						s3.982,19.516,10.983,26.517c6.439,6.439,17.109,11.905,26.517,10.983c14.306-1.401,28.534-3.562,42.372-7.496
						c13.362-3.8,26.351-9.28,38.861-15.257c22.173-10.594,42.292-25.503,60.76-41.585c32.033-27.897,58.524-62.943,80.106-99.383
						c5.866-9.904,11.329-20.051,16.364-30.403c4.541-9.335,6.612-18.603,3.78-28.896c-2.578-9.374-8.851-17.501-17.233-22.412
						C954.573,73.557,928.816,78.367,919.879,96.741L919.879,96.741z"/>
				</g>
				<g>
					<path fill="#FFFFFF" d="M926.769,100.769c-6.881,14.146-14.584,27.877-22.949,41.197c-5.026,8.003-10.337,15.826-15.877,23.481
						c-1.396,1.927-2.814,3.835-4.242,5.738c-0.723,0.962-1.453,1.917-2.184,2.873c6.081-7.952,3.006-3.886,1.641-2.146
						c-3.299,4.205-6.704,8.326-10.179,12.387c-6.873,8.035-14.14,15.73-21.739,23.081c-3.716,3.593-7.543,7.068-11.44,10.462
						c-1.96,1.707-3.956,3.374-5.963,5.025c-1.006,0.828-2.024,1.641-3.042,2.454c-5.678,4.535,4.745-3.601,0.815-0.62
						c-8.718,6.614-17.91,12.593-27.464,17.926c-4.621,2.579-9.359,4.942-14.164,7.16c-1.206,0.557-2.423,1.089-3.64,1.622
						c9.051-3.96,4.17-1.749,2.138-0.925c-2.891,1.172-5.823,2.243-8.768,3.27c-11.163,3.896-22.724,6.583-34.429,8.206
						c2.616-0.352,5.232-0.703,7.848-1.055c-2.315,0.302-4.632,0.566-6.955,0.794c-8.107,0.794-14.927,2.699-20.874,8.646
						c-5.511,5.511-8.646,13.076-8.646,20.874c0,14.902,13.477,31.093,29.521,29.521c27.328-2.678,52.432-9.829,77.205-21.664
						c21.572-10.306,41.171-24.685,59.145-40.337c31.549-27.475,57.603-61.878,78.858-97.768
						c5.866-9.904,11.33-20.052,16.365-30.403c7.038-14.47,4.066-31.804-10.591-40.39
						C954.081,82.518,933.805,86.304,926.769,100.769L926.769,100.769z"/>
				</g>
			</g>
			<g>
				<g>
					<path fill="#8FCCFF" d="M685.099,580.259c-8.094-6.895-15.584-14.384-22.188-22.727c1.955,2.529,3.909,5.06,5.864,7.589
						c-5.884-7.621-10.886-15.777-14.688-24.633c1.26,2.986,2.52,5.973,3.78,8.958c-2.979-7.222-5.069-14.677-6.159-22.415
						c0.446,3.322,0.893,6.646,1.339,9.969c-0.934-7.438-0.913-14.863,0.028-22.299c-0.447,3.323-0.893,6.646-1.339,9.969
						c1.179-8.363,3.476-16.427,6.699-24.229c-1.26,2.986-2.52,5.973-3.78,8.958c4.244-9.931,9.843-19.112,16.397-27.682
						c-1.955,2.53-3.909,5.06-5.864,7.59c9.505-12.186,20.701-22.825,32.906-32.274c-2.53,1.955-5.06,3.909-7.59,5.863
						c13.9-10.601,28.786-19.6,44.864-26.475c-2.986,1.26-5.972,2.521-8.958,3.78c20.885-8.789,42.97-14.324,65.399-17.354
						c-3.323,0.447-6.646,0.894-9.969,1.34c25.219-3.291,50.783-3.393,76.011-0.124c-3.323-0.447-6.646-0.894-9.97-1.34
						c20.73,2.786,41.114,7.854,60.452,15.883c-2.985-1.26-5.972-2.52-8.958-3.78c13.8,5.83,26.897,13.135,38.794,22.264
						c-2.53-1.954-5.06-3.909-7.59-5.863c8.35,6.515,15.958,13.843,22.64,22.065c5.942,7.312,17.473,10.983,26.517,10.983
						c9.906,0,19.516-3.982,26.517-10.983s10.983-16.61,10.983-26.517c0-10.756-4.446-18.472-10.983-26.517
						c-29.117-35.832-74.794-57.226-119.189-66.596c-48.253-10.184-98.888-9.121-146.712,2.906
						c-22.117,5.562-44.013,14.142-63.795,25.496c-23.704,13.606-46.463,31.637-63.534,53.1
						c-8.78,11.038-16.901,22.246-22.618,35.192c-3.204,7.254-6.305,14.53-8.476,22.161c-2.277,8.003-3.223,16.417-4.144,24.644
						c-3.029,27.036,6.153,56.052,20.921,78.479c9.252,14.051,20.57,26.754,33.362,37.65c7.814,6.656,15.949,10.983,26.517,10.983
						c9.906,0,19.516-3.982,26.517-10.983C698.683,619.708,700.672,593.525,685.099,580.259L685.099,580.259z"/>
				</g>
				<g>
					<path fill="#FFFFFF" d="M679.456,585.901c-5.674-4.833-11.053-9.951-16.076-15.46c-1.08-1.184-2.119-2.404-3.157-3.624
						c-0.673-0.802-1.337-1.61-1.992-2.427c3.012,3.952,3.61,4.726,1.795,2.32c-2.08-2.763-3.988-5.648-5.813-8.584
						c-1.739-2.796-3.293-5.701-4.76-8.647c-0.609-1.225-1.167-2.474-1.724-3.722c4.173,9.351,1.321,3.058,0.515,0.836
						c-2.045-5.639-3.396-11.509-4.231-17.441c0.352,2.616,0.703,5.231,1.055,7.848c-0.934-7.438-0.913-14.863,0.028-22.299
						c-0.352,2.616-0.703,5.231-1.055,7.848c0.583-4.129,1.423-8.188,2.511-12.213c0.55-2.036,1.208-4.041,1.889-6.036
						c0.804-2.353,4.08-10.06-0.169-0.116c3.692-8.64,8.649-16.703,14.2-24.263c1.791-2.378,1.104-1.499-2.062,2.635
						c0.873-1.118,1.776-2.212,2.68-3.305c1.529-1.851,3.126-3.645,4.737-5.423c3.317-3.664,6.842-7.134,10.454-10.504
						c3.75-3.5,7.683-6.801,11.691-9.999c2.387-1.873,1.641-1.298-2.239,1.724c1.266-0.966,2.552-1.903,3.838-2.841
						c2.611-1.904,5.283-3.725,7.971-5.518c7.083-4.726,14.448-8.976,22.086-12.735c1.766-0.869,3.552-1.694,5.342-2.51
						c0.723-0.327,1.448-0.649,2.175-0.968c4.653-2.053-7.356,3.058-2.641,1.105c4.123-1.708,8.312-3.251,12.529-4.707
						c16.41-5.666,33.464-9.4,50.654-11.723c-2.616,0.352-5.231,0.703-7.848,1.055c25.219-3.291,50.783-3.393,76.011-0.124
						c-2.616-0.352-5.232-0.703-7.848-1.055c11.557,1.554,22.987,3.812,34.24,6.878c5.705,1.555,11.337,3.371,16.901,5.371
						c2.745,0.987,5.461,2.056,8.161,3.157c-10.576-4.314-0.485-0.146,2.006,1.021c10.214,4.783,19.943,10.584,28.997,17.308
						c4.044,3.002-6.166-4.841-2.227-1.716c1.233,0.978,2.438,1.991,3.638,3.009c2.092,1.773,4.108,3.634,6.091,5.527
						c3.946,3.771,7.609,7.831,11.051,12.065c10.161,12.506,31.252,10.496,41.748,0c5.512-5.511,8.646-13.076,8.646-20.874
						c0-8.467-3.5-14.541-8.646-20.874c-28.344-34.882-72.459-55.424-115.668-64.543c-46.823-9.882-96.075-8.762-142.47,2.905
						c-21.47,5.399-42.681,13.667-61.889,24.692c-23.16,13.293-45.247,30.891-61.919,51.851
						c-8.346,10.492-15.938,21.275-21.371,33.578c-6.254,14.16-9.806,27.382-11.531,42.777c-2.89,25.792,5.74,53.052,19.832,74.452
						c8.883,13.489,19.839,25.579,32.114,36.035c12.237,10.425,29.696,12.052,41.748,0
						C690.149,616.956,691.716,596.345,679.456,585.901L679.456,585.901z"/>
				</g>
			</g>
			<g>
				<g>
					<path fill="#8FCCFF" d="M789.327,485.509c-16.92-9.735-32.907-21.116-48.354-33.023c2.53,1.954,5.06,3.908,7.59,5.863
						c-31.528-24.405-61.258-51.848-85.691-83.461c1.955,2.53,3.909,5.06,5.864,7.59c-11.497-15.004-21.776-31.019-29.176-48.459
						c1.26,2.986,2.52,5.973,3.78,8.958c-4.126-9.931-7.24-20.219-8.721-30.887c0.447,3.322,0.893,6.646,1.34,9.969
						c-0.934-7.307-1.066-14.628-0.217-21.949c1.08-9.309-4.646-20.18-10.983-26.517c-7.001-7.001-16.611-10.983-26.517-10.983
						s-19.516,3.982-26.517,10.983c-7.653,7.653-9.782,16.162-10.983,26.517c-2.397,20.652,2.05,42.596,9.833,61.737
						c4.857,11.944,10.185,23.456,16.85,34.496c6.917,11.459,15.032,22.027,23.207,32.604c27.82,35.997,62.719,65.986,98.935,93.207
						c13.438,10.1,27.328,19.728,41.907,28.115c17.724,10.198,40.933,4.258,51.307-13.453
						C813.056,519.274,807.017,495.687,789.327,485.509L789.327,485.509z"/>
				</g>
				<g>
					<path fill="#FFFFFF" d="M785.3,492.398c-13.606-7.829-26.571-16.765-39.188-26.089c-1.832-1.354-3.651-2.724-5.466-4.1
						c-0.927-0.703-1.849-1.411-2.771-2.119c1.371,1.06,2.743,2.119,4.114,3.179c-0.624-0.484-1.248-0.97-1.87-1.456
						c-4.161-3.249-8.268-6.566-12.338-9.926c-8.231-6.794-16.253-13.841-24.081-21.096c-16.113-14.935-31.298-30.932-44.88-48.213
						c-3.27-4.16,4.649,6.073,1.457,1.869c-0.779-1.025-1.545-2.061-2.311-3.097c-1.519-2.054-2.997-4.139-4.46-6.233
						c-3.106-4.449-6.045-9.014-8.849-13.659c-2.509-4.156-4.844-8.416-7.047-12.741c-1.074-2.109-2.085-4.249-3.072-6.399
						c-0.487-1.062-0.951-2.133-1.415-3.204c4.265,9.848,1.686,3.979,0.804,1.71c-3.332-8.572-5.737-17.502-7.002-26.613
						c0.352,2.616,0.703,5.231,1.055,7.848c-0.934-7.307-1.066-14.628-0.217-21.949c0.851-7.327-3.658-15.886-8.646-20.874
						c-5.511-5.512-13.076-8.646-20.874-8.646s-15.363,3.135-20.874,8.646c-6.025,6.024-7.701,12.723-8.646,20.874
						c-2.324,20.021,2.009,41.075,9.548,59.616c9.518,23.407,22.598,43.645,38.004,63.578c27.388,35.438,61.657,65.154,97.32,91.959
						c13.438,10.1,27.329,19.728,41.907,28.116c13.953,8.028,32.223,3.352,40.39-10.591
						C803.979,518.979,799.226,500.411,785.3,492.398L785.3,492.398z"/>
				</g>
			</g>
		</g>
		<path clip-path="url(#SVGID_2_)" fill="none" stroke="#FFFFFF" stroke-width="45" stroke-miterlimit="10" d="M1003.999,399.511
			c0,41.695-33.798,75.489-75.488,75.489H629.489C587.798,475,554,441.206,554,399.511V100.489C554,58.798,587.798,25,629.489,25
			h299.022c41.69,0,75.488,33.798,75.488,75.489V399.511z"/>
		<use xlink:href="#SVGID_1_"  overflow="visible" fill="none" stroke="#8FCCFF" stroke-width="30" stroke-miterlimit="10"/>
	</g>
</g>
<g id="Long">
	<g>
		<g>
			<g>
				<path fill="#FFFFFF" d="M247.39,382.513c3.07,3.74-2.74-3.687-0.634-0.853c0.939,1.265,1.818,2.572,2.683,3.888
					c1.905,2.897,3.584,5.938,5.126,9.041c0.318,0.652,0.628,1.31,0.93,1.97c1.757,3.788-1.934-4.82-0.39-0.916
					c0.681,1.723,1.253,3.485,1.791,5.258c0.537,1.77,0.943,3.574,1.307,5.387c0.375,2.201,0.296,1.442-0.236-2.277
					c0.144,1.084,0.21,2.175,0.274,3.266c0.084,1.442,0.036,2.889-0.038,4.33c-0.2,2.214-0.072,1.438,0.384-2.331
					c-0.154,1.066-0.411,2.113-0.67,3.157c-0.185,0.697-0.395,1.387-0.629,2.068c-1.272,3.927,2.23-4.688,0.372-0.951
					c-0.779,1.566-4.778,6.516-0.608,1.475c-1.333,1.611-2.905,3.006-4.505,4.342c4.728-3.949-1.334,0.512-2.733,1.275
					c-0.775,0.407-1.561,0.792-2.359,1.152c5.378-2.53,1.504-0.704,0.184-0.265c-1.992,0.662-4.052,1.092-6.114,1.463
					c6.633-1.195,0.942-0.207-0.677-0.131c-2.095,0.098-4.195-0.01-6.285-0.159c-2.27-0.231-1.686-0.127,1.75,0.312
					c-1.272-0.173-2.534-0.42-3.793-0.666c-2.13-0.415-4.228-0.983-6.312-1.579c-2.12-0.605-4.201-1.341-6.271-2.099
					c-0.833-0.312-1.663-0.635-2.488-0.968c5.575,2.209,1.173,0.482,0.046-0.027c-4.093-1.85-8.057-3.979-11.957-6.202
					c-13.302-7.581-25.266-17.084-37.564-26.13c-9.17-6.746-23.223-1.55-28.51,7.476c-6.197,10.578-1.654,21.793,7.476,28.509
					c31.522,23.188,68.788,51.998,110.564,40.752c24.875-6.696,43.263-28.712,42.412-54.804
					c-0.659-20.198-10.49-38.921-23.058-54.231c-7.216-8.79-22.03-7.438-29.469,0C238.773,361.66,240.19,373.742,247.39,382.513
					L247.39,382.513z"/>
			</g>
			<g>
				<path fill="#8FCCFF" d="M251.687,378.216c2.538,3.092-1.316-1.819,0.316,0.377c0.939,1.265,1.818,2.572,2.683,3.888
					c1.905,2.897,3.584,5.938,5.125,9.041c0.319,0.652,0.629,1.31,0.93,1.97c1.579,3.405-1.167-2.977,0.223,0.536
					c0.681,1.723,1.253,3.485,1.791,5.257c0.537,1.771,0.943,3.575,1.307,5.387c0.277,1.667,0.271,1.446-0.019-0.661
					c0.144,1.084,0.21,2.175,0.274,3.266c0.085,1.442,0.036,2.889-0.038,4.33c-0.157,1.673-0.102,1.434,0.167-0.715
					c-0.153,1.066-0.411,2.113-0.669,3.157c-0.186,0.696-0.395,1.386-0.629,2.067c-1.133,3.498,1.417-2.833-0.241,0.501
					c-0.439,0.884-3.762,5.368-1.559,2.704c-1.333,1.611-2.906,3.006-4.505,4.342c1.212-0.96,1.105-0.931-0.322,0.088
					c-1.167,0.788-2.407,1.464-3.642,2.138c-0.774,0.408-1.561,0.792-2.358,1.153c2.974-1.399-0.828,0.201-1.268,0.348
					c-1.991,0.662-4.052,1.091-6.114,1.463c3.67-0.662-1.546,0.051-2.292,0.086c-2.095,0.098-4.195-0.01-6.285-0.158
					c-1.728-0.186-1.683-0.154,0.135,0.094c-1.273-0.172-2.534-0.419-3.794-0.665c-2.13-0.415-4.228-0.983-6.312-1.579
					c-2.12-0.605-4.201-1.341-6.27-2.1c-0.834-0.312-1.664-0.634-2.489-0.968c2.983,1.183-1.112-0.507-1.405-0.639
					c-4.093-1.851-8.057-3.979-11.957-6.203c-13.301-7.581-25.266-17.083-37.564-26.13c-6.496-4.778-16.45-1.098-20.195,5.295
					c-4.39,7.494-1.172,15.438,5.295,20.195c29.972,22.047,66.02,50.869,105.881,40.139c22.349-6.016,38.714-25.517,37.95-48.943
					c-0.603-18.472-9.777-35.924-21.278-49.935c-5.111-6.227-15.605-5.269-20.874,0
					C245.583,363.444,246.587,372.003,251.687,378.216L251.687,378.216z"/>
			</g>
		</g>
		<g>
			<g>
				<path fill="#FFFFFF" d="M179.965,410.267c-2.071,2.032-4.233,3.949-6.471,5.796c-2.707,2.233,4.071-2.989-0.588,0.444
					c-1.731,1.276-3.516,2.477-5.312,3.658c-3.425,2.255-6.994,4.283-10.624,6.188c-1.667,0.875-3.371,1.681-5.078,2.475
					c-2.077,0.921-1.726,0.788,1.056-0.396c-1.32,0.554-2.662,1.055-4.003,1.554c-4.023,1.498-8.166,2.647-12.356,3.563
					c-1.321,0.289-7.865,1.164-1.444,0.382c-2.317,0.282-4.652,0.373-6.984,0.403c-1.852,0.025-3.7-0.103-5.543-0.257
					c6.508,0.545-1.008-0.31-2.622-0.715c-1.804-0.454-3.554-1.092-5.288-1.756c5.696,2.181-1.332-1.011-2.642-1.82
					c-9.669-5.976-22.879-2.137-28.51,7.476c-5.847,9.98-2.168,22.549,7.476,28.509c38.214,23.617,89.066,2.743,118.403-26.035
					c8.105-7.951,7.97-21.498,0-29.469C201.348,402.181,188.069,402.316,179.965,410.267L179.965,410.267z"/>
			</g>
			<g>
				<path fill="#8FCCFF" d="M184.262,414.563c-2.071,2.032-4.233,3.95-6.471,5.796c-1.278,1.017-1.222,0.988,0.168-0.086
					c-0.657,0.501-1.319,0.994-1.987,1.481c-1.731,1.275-3.516,2.476-5.312,3.658c-3.425,2.255-6.995,4.283-10.624,6.188
					c-1.668,0.875-3.371,1.681-5.078,2.475c-1.6,0.701-1.732,0.773-0.396,0.217c-1.32,0.554-2.662,1.054-4.003,1.554
					c-4.023,1.498-8.166,2.646-12.356,3.563c-0.551,0.12-6.152,0.976-3.06,0.599c-2.317,0.282-4.652,0.373-6.984,0.404
					c-1.852,0.024-3.7-0.104-5.543-0.258c1.633,0.265,1.572,0.253-0.185-0.034c-1.367-0.224-2.71-0.561-4.052-0.897
					c-1.804-0.454-3.554-1.092-5.289-1.756c1.371,0.557,1.259,0.466-0.336-0.272c-1.297-0.64-2.529-1.401-3.757-2.161
					c-6.849-4.232-16.207-1.514-20.195,5.295c-4.142,7.07-1.536,15.974,5.295,20.195c35.817,22.136,83.658,1.773,111.038-25.085
					c5.742-5.633,5.646-15.229,0-20.875C199.409,408.836,190.002,408.933,184.262,414.563L184.262,414.563z"/>
			</g>
		</g>
		<g>
			<g>
				<path fill="#FFFFFF" d="M145.345,269.163c-2.773-0.114-5.539-0.287-8.304-0.53c-1.308-0.115-2.611-0.269-3.915-0.422
					c6.408,0.757,1.931,0.245,0.562,0.025c-4.859-0.783-9.648-1.968-14.323-3.504c-0.98-0.322-1.947-0.684-2.914-1.046
					c-3.716-1.394,4.874,2.15,1.313,0.575c-1.721-0.761-3.389-1.636-5.031-2.553c-1.549-0.864-3.033-1.839-4.487-2.854
					c-2.953-2.059,4.287,3.43,1.52,1.199c-0.854-0.688-1.665-1.429-2.467-2.177c-1.166-1.087-2.241-2.267-3.279-3.475
					c-2.233-2.597,3.365,4.51,1.346,1.771c-0.455-0.616-0.875-1.258-1.294-1.898c-0.829-1.267-1.551-2.601-2.235-3.95
					c-0.743-1.467-2-4.6,0.865,2.24c-0.386-0.923-0.715-1.868-1.036-2.815c-0.483-1.426-0.855-2.887-1.193-4.354
					c-0.169-0.738-0.304-1.484-0.438-2.23c-0.613-3.407,0.724,5.967,0.321,2.517c-0.393-3.364-0.381-6.767-0.166-10.143
					c0.051-0.8,0.132-1.597,0.213-2.395c0.359-3.547-0.852,5.869-0.321,2.324c0.244-1.631,0.572-3.249,0.925-4.859
					c0.788-3.597,1.883-7.123,3.129-10.585c0.294-0.818,0.611-1.628,0.927-2.437c1.333-3.408-2.209,5.112-0.75,1.74
					c0.704-1.628,1.472-3.228,2.258-4.817c1.732-3.502,3.696-6.886,5.783-10.187c0.974-1.541,2.001-3.047,3.045-4.541
					c1.029-1.472,5.31-6.985,0.566-0.914c2.437-3.119,5.061-6.087,7.795-8.947c2.497-2.611,5.145-5.075,7.88-7.433
					c1.378-1.188,6.816-5.364,0.631-0.644c1.625-1.24,3.303-2.407,5.002-3.542c2.609-1.742,5.33-3.312,8.112-4.759
					c10.067-5.237,13-19.079,7.476-28.51c-5.946-10.15-18.432-12.717-28.51-7.476c-29.763,15.481-53.349,45.797-62.503,77.902
					c-4.353,15.265-5.299,33.199,0.668,48.181c7.855,19.72,22.558,31.966,41.917,39.859c12.782,5.213,27.242,6.771,40.911,7.334
					c11.356,0.467,20.837-9.833,20.837-20.838C166.182,278.289,156.69,269.631,145.345,269.163L145.345,269.163z"/>
			</g>
			<g>
				<path fill="#8FCCFF" d="M145.345,275.24c-2.773-0.113-5.539-0.287-8.304-0.53c-1.308-0.115-2.611-0.269-3.915-0.422
					c3.586,0.424-0.52-0.106-1.054-0.192c-4.859-0.782-9.648-1.967-14.322-3.503c-0.981-0.322-1.948-0.684-2.914-1.046
					c-3.3-1.237,3.013,1.356-0.138-0.037c-1.721-0.762-3.389-1.636-5.031-2.553c-1.549-0.865-3.033-1.84-4.487-2.854
					c-2.574-1.795,2.695,2.188,0.29,0.249c-0.854-0.689-1.665-1.43-2.467-2.178c-1.167-1.087-2.242-2.267-3.28-3.474
					c-1.924-2.238,2.133,2.897,0.396,0.541c-0.455-0.616-0.875-1.258-1.294-1.898c-0.829-1.267-1.551-2.601-2.235-3.949
					c-0.471-0.929-1.579-3.585,0.253,0.787c-0.387-0.923-0.716-1.868-1.037-2.814c-0.483-1.426-0.855-2.887-1.192-4.354
					c-0.17-0.738-0.304-1.484-0.438-2.23c-0.523-2.911,0.449,3.851,0.104,0.901c-0.393-3.364-0.381-6.767-0.166-10.143
					c0.051-0.8,0.132-1.597,0.213-2.395c0.309-3.053-0.561,3.762-0.104,0.708c0.244-1.631,0.573-3.249,0.925-4.859
					c0.787-3.598,1.883-7.123,3.128-10.585c0.294-0.818,0.611-1.627,0.928-2.437c1.163-2.975-1.412,3.233-0.138,0.289
					c0.704-1.628,1.472-3.228,2.258-4.817c1.732-3.501,3.696-6.886,5.782-10.187c0.974-1.541,2.001-3.047,3.045-4.541
					c0.637-0.912,4.381-5.81,1.516-2.144c2.437-3.119,5.061-6.087,7.796-8.947c2.497-2.611,5.144-5.075,7.879-7.433
					c0.857-0.739,5.647-4.484,1.861-1.594c1.625-1.24,3.303-2.407,5.002-3.542c2.609-1.742,5.33-3.312,8.112-4.759
					c7.131-3.709,9.208-13.514,5.295-20.195c-4.212-7.19-13.057-9.008-20.195-5.295c-28.41,14.778-50.966,43.604-59.71,74.27
					c-4.088,14.337-4.932,30.889,0.668,44.949c6.981,17.526,20.492,28.61,37.672,35.616c12.304,5.017,26.13,6.573,39.296,7.116
					c8.044,0.331,14.76-6.965,14.76-14.761C160.105,281.704,153.381,275.571,145.345,275.24L145.345,275.24z"/>
			</g>
		</g>
		<g>
			<g>
				<path fill="#FFFFFF" d="M291.864,82.779c-0.558-13.532-5.029-25.771-14.47-35.64c-9.341-9.765-22.537-14.166-35.624-15.569
					c-24.362-2.613-50.414,9.461-67.12,26.772c-16.097,16.679-22.589,38.598-24.939,61.091c-1.312,12.556-0.15,25.232,3.404,37.358
					c3.444,11.752,9.304,22.673,14.461,33.727c4.803,10.292,19.399,12.812,28.51,7.476c10.463-6.129,12.278-18.217,7.476-28.51
					c-1.7-3.643-3.479-7.247-5.206-10.877c-1.029-2.163-2.011-4.347-2.966-6.543c2.401,5.526-0.705-2.154-1.144-3.413
					c-1.567-4.497-2.668-9.13-3.437-13.826c0.364,2.807,0.42,2.996,0.169,0.567c-0.157-1.718-0.185-3.444-0.211-5.167
					c-0.038-2.393,0.141-4.791,0.307-7.176c0.112-1.609,0.271-3.215,0.438-4.819c0.087-0.802,0.183-1.603,0.286-2.403
					c-0.817,6.597-0.262,2.172-0.026,0.758c0.66-3.962,1.614-7.867,2.772-11.711c0.462-1.533,1.002-3.041,1.556-4.543
					c0.807-2.047,0.558-1.501-0.746,1.639c0.471-1.108,0.998-2.19,1.525-3.271c0.885-1.814,1.898-3.561,2.945-5.285
					c0.782-1.287,5.073-7.015,0.993-1.806c2.369-3.024,5.108-5.736,7.993-8.264c1.704-1.402,1.342-1.156-1.086,0.738
					c1.093-0.843,2.237-1.618,3.379-2.392c1.993-1.35,4.093-2.534,6.208-3.679c1.793-0.97,3.65-1.817,5.51-2.648
					c-4.993,2.231,2.387-0.698,3.685-1.079c2.174-0.639,4.401-1.075,6.632-1.456c-6.636,1.131,0.669,0.115,2.312,0.077
					c1.696-0.039,3.39,0.072,5.079,0.208c-6.853-0.55-0.049,0.1,1.697,0.542c0.768,0.206,1.528,0.436,2.282,0.688
					c4.144,1.32-4.549-2.155-0.654-0.335c1.724,0.805,3.327,1.839,4.878,2.933c-5.265-3.709-1.207-0.75-0.03,0.48
					c1.401,1.627,1.027,1.098-1.125-1.588c0.686,0.92,1.254,1.921,1.819,2.917c0.965,1.951,0.758,1.36-0.621-1.771
					c0.467,1.131,0.791,2.316,1.116,3.493c0.209,0.823,0.386,1.652,0.53,2.489c-1.161-6.029-0.296-1.716-0.232-0.18
					c0.468,11.346,9.125,20.837,20.837,20.837C282.031,103.617,292.332,94.135,291.864,82.779L291.864,82.779z"/>
			</g>
			<g>
				<path fill="#8FCCFF" d="M285.787,82.779c-0.49-11.886-4.397-22.673-12.69-31.343c-8.167-8.538-19.857-12.559-31.326-13.789
					c-22.885-2.455-47.118,8.718-62.823,24.992c-14.901,15.439-20.983,35.96-23.159,56.793c-1.259,12.054-0.227,24.098,3.187,35.742
					c3.299,11.253,8.911,21.693,13.849,32.275c3.402,7.291,13.741,9.076,20.195,5.295c7.412-4.342,8.698-12.904,5.295-20.195
					c-1.7-3.643-3.479-7.247-5.206-10.877c-1.029-2.163-2.011-4.347-2.966-6.543c0.542,1.257,0.477,1.06-0.198-0.593
					c-0.559-1.41-1.06-2.841-1.559-4.272c-3.488-10.012-4.119-16.711-3.389-27.217c0.112-1.609,0.271-3.215,0.438-4.819
					c0.087-0.802,0.183-1.603,0.286-2.403c-0.469,3.788,0.089-0.248,0.19-0.858c0.66-3.962,1.614-7.867,2.772-11.711
					c0.462-1.533,1.003-3.041,1.556-4.543c0.619-1.557,0.575-1.495-0.133,0.187c0.471-1.107,0.998-2.19,1.525-3.271
					c0.885-1.814,1.898-3.561,2.945-5.285c0.444-0.73,3.966-5.618,1.943-3.036c6.055-7.73,9.422-10.054,17.725-14.546
					c4.484-2.426,5.788-2.913,10.646-4.34c2.174-0.639,4.401-1.075,6.632-1.455c-1.723,0.217-1.713,0.232,0.028,0.047
					c1.296-0.126,2.599-0.157,3.9-0.187c1.696-0.039,3.39,0.072,5.079,0.208c-3.605-0.29,2.345,0.514,3.313,0.759
					c0.768,0.207,1.528,0.436,2.282,0.688c3.732,1.189-2.702-1.357,0.797,0.277c1.724,0.805,3.326,1.839,4.878,2.933
					c-3.049-2.149,0.624,0.828,1.201,1.431c1.058,1.239,1,1.12-0.174-0.358c0.686,0.92,1.254,1.921,1.819,2.917
					c0.721,1.485,0.718,1.378-0.008-0.32c0.467,1.131,0.791,2.316,1.116,3.493c0.209,0.823,0.386,1.652,0.53,2.489
					c-0.656-3.407-0.037,0.922-0.016,1.436c0.332,8.037,6.463,14.76,14.76,14.76C278.821,97.54,286.118,90.823,285.787,82.779
					L285.787,82.779z"/>
			</g>
		</g>
		<g>
			<g>
				<path fill="#FFFFFF" d="M81.595,115.031c3.438-2.066,6.984-3.918,10.598-5.656c1.418-0.682,9.259-4.063,3.169-1.515
					c2.538-1.062,5.108-2.044,7.688-3.001c10.845-4.028,22.047-7.103,33.399-9.311c2.546-0.496,5.106-0.906,7.67-1.292
					c-5.73,0.863-0.478,0.086,0.601-0.036c1.526-0.171,3.056-0.297,4.586-0.422c5.949-0.486,11.928-0.501,17.881-0.102
					c0.957,0.071,1.912,0.157,2.866,0.257c5.003,0.487-4.84-0.775,0.058,0.029c2.856,0.469,5.684,1.111,8.496,1.793
					c5.752,1.395,11.373,3.295,16.874,5.468c2.126,0.871,1.842,0.75-0.852-0.36c1.37,0.596,2.718,1.24,4.066,1.883
					c2.691,1.285,5.313,2.71,7.905,4.183c2.575,1.462,5.067,3.065,7.524,4.715c1.219,0.819,2.405,1.685,3.591,2.55
					c4.083,2.982-3.527-2.85,0.365,0.333c4.046,3.31,7.756,7.01,11.186,10.95c0.754,0.866,3.687,4.729,0.212,0.132
					c0.83,1.098,1.599,2.241,2.367,3.383c1.519,2.259,2.838,4.642,4.076,7.063c0.401,0.805,0.785,1.618,1.151,2.439
					c-2.467-5.376-0.56-1.184-0.13,0.022c1.095,3.078,1.781,6.295,2.453,9.486c0.346,1.642,0.605,3.299,0.862,4.956
					c-0.851-5.494-0.152-0.233-0.075,0.805c0.227,3.03,0.17,6.071,0.007,9.102c-0.063,1.176-0.729,6.268,0.105,0.357
					c-0.208,1.472-0.508,2.929-0.806,4.384c-0.612,2.984-1.49,5.908-2.427,8.803c-0.488,1.509-1.05,2.995-1.607,4.479
					c-1.938,5.157,1.83-4.055-0.438,1.145c-1.427,3.27-3.016,6.469-4.625,9.652c-5.124,10.138-2.76,22.514,7.476,28.51
					c9.344,5.474,23.39,2.655,28.51-7.476c7.363-14.57,13.115-29.165,15.056-45.425c1.663-13.931-0.231-29.265-5.232-42.378
					c-9.999-26.214-31.634-45.942-56.471-58.156c-24.966-12.277-51.985-17.317-79.615-13.673
					c-26.109,3.443-51.8,10.948-75.106,23.393c-1.507,0.805-2.985,1.665-4.449,2.544c-9.718,5.841-13.268,18.621-7.476,28.51
					C58.769,117.258,71.854,120.885,81.595,115.031L81.595,115.031z"/>
			</g>
			<g>
				<path fill="#8FCCFF" d="M78.528,109.783c3.438-2.066,6.984-3.918,10.598-5.656c1.116-0.537,2.244-1.046,3.372-1.557
					c0.345-0.156,4.249-1.826,1.249-0.57c2.538-1.062,5.109-2.044,7.688-3.002c10.845-4.028,22.048-7.102,33.4-9.311
					c6.512-1.267,7.884-1.429,14.473-1.967c5.949-0.486,11.928-0.502,17.881-0.102c4.43,0.297,6.752,0.773,13.036,2.296
					c5.752,1.395,11.374,3.295,16.875,5.468c1.642,0.667,1.842,0.75,0.6,0.252c1.37,0.596,2.718,1.24,4.066,1.883
					c2.691,1.284,5.313,2.709,7.905,4.182c2.575,1.462,5.067,3.065,7.524,4.715c1.219,0.819,2.405,1.685,3.59,2.55
					c3.835,2.801-2.057-1.704,1.596,1.284c4.046,3.31,7.756,7.011,11.186,10.95c0.126,0.145,2.958,3.737,1.163,1.362
					c0.83,1.098,1.599,2.241,2.367,3.383c1.519,2.259,2.838,4.643,4.076,7.063c0.401,0.805,0.785,1.618,1.151,2.439
					c-1.323-2.883,0.369,1.157,0.482,1.474c1.095,3.078,1.781,6.295,2.454,9.486c1.098,5.213,1.372,9.777,1.011,16.478
					c-0.008,0.15-0.536,4.98-0.111,1.973c-0.208,1.472-0.508,2.929-0.807,4.384c-0.612,2.984-1.49,5.908-2.427,8.803
					c-1.958,6.049-4.069,10.369-7.283,16.729c-3.629,7.181-1.955,15.948,5.295,20.195c6.619,3.877,16.568,1.88,20.195-5.295
					c6.829-13.513,12.422-27.247,14.227-42.358c1.605-13.447-0.188-28.103-5.016-40.762c-9.42-24.7-30.371-43.063-53.677-54.524
					c-24.045-11.825-49.982-16.347-76.548-12.844c-24.981,3.294-49.756,10.665-72.039,22.563c-1.508,0.805-2.985,1.665-4.449,2.544
					c-6.884,4.137-9.398,13.19-5.295,20.195C62.359,111.361,71.628,113.93,78.528,109.783L78.528,109.783z"/>
			</g>
		</g>
		<g>
			<g>
				<path fill="#FFFFFF" d="M145.385,173.548c2.994-1.817,6.042-3.512,9.156-5.114c1.561-0.803,3.151-1.548,4.739-2.295
					c0.784-0.369,7.689-3.295,3.11-1.408c7.113-2.932,14.404-5.425,21.688-7.89c12.864-4.352,25.814-8.36,38.735-12.529
					c29.214-9.424,68.753-25.012,69.05-61.534c0.093-11.36-9.548-20.837-20.837-20.837c-11.429,0-20.745,9.48-20.837,20.837
					c-0.014,1.646-0.881,5.627,0.238-0.297c-0.263,1.393-1.969,5.335,0.432-0.12c-0.527,1.197-1.239,2.304-1.939,3.403
					c-2.505,3.937,3.076-3.529-0.145,0.017c-0.96,1.058-2.034,2.008-3.097,2.958c-3.765,3.366,3.7-2.602-0.54,0.414
					c-2.611,1.857-5.415,3.439-8.229,4.964c-2.816,1.526-5.736,2.858-8.664,4.154c4.804-2.125-0.288,0.084-1.089,0.402
					c-1.534,0.608-3.082,1.178-4.629,1.75c-6.485,2.396-13.089,4.466-19.693,6.507c-26.545,8.207-54.599,16.132-78.484,30.631
					c-9.692,5.883-13.288,18.588-7.476,28.51C122.541,175.743,135.669,179.446,145.385,173.548L145.385,173.548z"/>
			</g>
			<g>
				<path fill="#8FCCFF" d="M142.318,168.301c23.758-14.422,52.002-21.177,78.88-29.848c26.323-8.492,64.317-22.418,64.588-55.673
					c0.155-19.043-29.366-19.028-29.521,0c-0.005,0.625-0.617,4.696,0.021,1.318c-0.094,0.498-1.502,4.336-0.18,1.332
					c-0.527,1.197-1.239,2.304-1.939,3.403c-2.242,3.521,1.797-1.938-1.095,1.247c-3.879,4.271-7.064,6.019-13.096,9.287
					c-10.686,5.789-22.772,9.482-35.526,13.425c-26.055,8.056-53.583,15.785-77.032,30.019c-6.865,4.167-9.412,13.167-5.295,20.195
					C126.136,169.855,135.436,172.479,142.318,168.301L142.318,168.301z"/>
			</g>
		</g>
		<g>
			<g>
				<path fill="#FFFFFF" d="M221.107,279.854c1.037,2.917,1.824,5.909,2.499,8.929c0.462,2.07,0.841,4.159,1.185,6.253
					c0.29,1.763,0.863,6.194-0.181-1.658c0.184,1.382,0.333,2.768,0.473,4.153c0.571,5.625,0.748,11.285,0.666,16.936
					c-0.046,3.158-0.224,6.312-0.468,9.461c-0.113,1.464-0.263,2.924-0.418,4.383c-0.618,5.8,0.738-4.646-0.155,1.212
					c-1.098,7.208-2.808,14.312-4.95,21.277c-1.148,3.735-2.495,7.406-3.938,11.036c-0.85,2.071-0.669,1.649,0.544-1.265
					c-0.362,0.831-0.731,1.658-1.108,2.482c-0.951,2.102-1.98,4.167-3.029,6.221c-1.959,3.839-4.142,7.559-6.428,11.209
					c-1.053,1.683-2.164,3.327-3.283,4.966c-0.696,1.021-5.596,7.595-2.185,3.188c-6.073,7.846-13,14.999-20.366,21.63
					c-8.445,7.602-7.712,21.757,0,29.469c8.343,8.344,21.034,7.592,29.469,0c28.421-25.582,48.9-60.095,55.276-97.989
					c3.955-23.502,4.696-50.156-3.417-72.97c-3.802-10.692-14.076-17.733-25.633-14.554
					C225.315,257.068,217.299,269.146,221.107,279.854L221.107,279.854z"/>
			</g>
			<g>
				<path fill="#8FCCFF" d="M226.967,278.239c1.037,2.917,1.823,5.909,2.498,8.929c0.463,2.07,0.841,4.159,1.185,6.252
					c0.181,1.1,0.708,5.006,0.037-0.042c0.184,1.382,0.333,2.768,0.473,4.153c0.571,5.625,0.748,11.285,0.666,16.936
					c-0.046,3.158-0.224,6.312-0.467,9.461c-0.113,1.464-0.264,2.924-0.419,4.383c-0.082,0.743-0.169,1.485-0.262,2.228
					c0.486-4.001-0.002-0.104-0.11,0.601c-1.099,7.207-2.808,14.312-4.95,21.276c-2.836,9.223-4.131,12.065-8.144,19.927
					c-1.959,3.839-4.142,7.559-6.428,11.209c-1.053,1.683-2.164,3.327-3.283,4.966c-0.573,0.831-1.154,1.656-1.744,2.476
					c0.094-0.132-2.894,3.883-1.392,1.941c-6.072,7.846-12.999,14.999-20.366,21.63c-5.982,5.385-5.463,15.411,0,20.875
					c5.91,5.909,14.899,5.378,20.874,0c27.736-24.966,47.493-58.338,53.714-95.308c3.778-22.458,4.33-47.955-3.417-69.739
					c-2.693-7.573-9.97-12.561-18.157-10.31C229.948,262.099,224.27,270.653,226.967,278.239L226.967,278.239z"/>
			</g>
		</g>
		<g>
			<g>
				<path fill="#FFFFFF" d="M92.215,294.446c0.025-3.098,0.198-6.171,0.532-9.251c-0.728,6.717-0.028,0.74,0.259-0.729
					c0.315-1.614,0.727-3.209,1.153-4.797c0.489-1.824,3.874-10.547,1.079-3.993c1.195-2.803,2.659-5.482,4.243-8.08
					c0.58-0.951,1.21-1.868,1.841-2.785c2.056-2.988-3.448,4.126,0.087-0.111c1.828-2.189,3.874-4.186,6.009-6.071
					c1.099-0.97,4.31-3.317-0.941,0.638c1.106-0.833,2.269-1.589,3.437-2.332c1.16-0.737,2.368-1.393,3.582-2.034
					c1.438-0.76,6.255-2.662-0.318-0.008c2.207-0.892,4.5-1.551,6.811-2.109c1.64-0.396,6.858-1.101-0.51-0.135
					c1.36-0.179,2.731-0.254,4.101-0.313c2.434-0.106,4.872,0.054,7.291,0.316c-7.229-0.787-1.958-0.19-0.28,0.181
					c1.426,0.314,2.825,0.736,4.217,1.172c1.068,0.334,2.114,0.736,3.158,1.138c-6.328-2.432-1.143-0.413,0.258,0.3
					c2.898,1.476,5.617,3.28,8.24,5.193c-4.852-3.539-1.174-0.854-0.193-0.017c1.369,1.166,2.661,2.421,3.941,3.683
					c1.34,1.321,2.597,2.725,3.842,4.135c0.639,0.736,1.266,1.482,1.88,2.239c-1.712-2.27-1.877-2.482-0.497-0.64
					c6.782,9.081,17.877,13.705,28.51,7.476c8.971-5.255,14.289-19.387,7.476-28.509c-11.809-15.81-25.721-28.072-44.482-34.83
					c-13.991-5.04-30.976-4.733-44.84,0.534c-33.086,12.571-51.276,45.201-51.559,79.74c-0.093,11.359,9.549,20.838,20.837,20.838
					C82.807,315.284,92.123,305.804,92.215,294.446L92.215,294.446z"/>
			</g>
			<g>
				<path fill="#8FCCFF" d="M86.138,294.446c0.025-3.098,0.198-6.171,0.532-9.251c-0.393,3.623,0.347-1.688,0.476-2.344
					c0.315-1.615,0.728-3.209,1.153-4.797c0.313-1.167,0.687-2.316,1.06-3.464c0.216-0.663,2.125-5.484,0.632-1.981
					c1.195-2.803,2.659-5.481,4.243-8.08c0.58-0.951,1.21-1.868,1.841-2.785c0.963-1.315,0.85-1.201-0.341,0.343
					c0.449-0.57,0.909-1.131,1.378-1.684c1.828-2.189,3.874-4.186,6.01-6.071c0.557-0.492,3.415-2.668,0.289-0.312
					c1.106-0.834,2.268-1.59,3.436-2.333c1.16-0.737,2.369-1.392,3.583-2.034c0.774-0.409,5.084-2.216,1.133-0.621
					c2.207-0.891,4.5-1.551,6.811-2.109c0.903-0.218,5.58-0.938,1.105-0.352c1.36-0.178,2.731-0.253,4.101-0.313
					c2.434-0.106,4.872,0.054,7.291,0.317c-4.361-0.475,0.444,0.2,1.336,0.397c1.426,0.314,2.825,0.736,4.217,1.172
					c1.068,0.334,2.114,0.736,3.158,1.138c-3.63-1.395,1.03,0.567,1.709,0.913c2.897,1.476,5.617,3.28,8.24,5.194
					c-2.666-1.945,0.737,0.678,1.037,0.933c1.369,1.167,2.661,2.421,3.941,3.684c1.34,1.321,2.597,2.725,3.842,4.135
					c0.639,0.735,1.266,1.482,1.879,2.239c-0.76-1.041-0.609-0.844,0.454,0.591c4.804,6.432,12.663,9.707,20.195,5.295
					c6.355-3.723,10.122-13.733,5.295-20.195c-10.787-14.442-23.712-25.863-40.85-32.037c-13.101-4.719-28.634-4.395-41.609,0.535
					c-30.48,11.581-46.838,42.271-47.097,73.88C56.462,313.489,85.982,313.475,86.138,294.446L86.138,294.446z"/>
			</g>
		</g>
		<g>
			<g>
				<path fill="#FFFFFF" d="M167.577,190.517c7.534,15.936,18.783,29.479,28.931,43.758c5.094,7.167,9.827,14.616,14.069,22.317
					c2.337,4.243,4.448,8.606,6.46,13.01c0.5,1.108,0.991,2.221,1.472,3.337c-0.916-2.176-0.916-2.148-0.001,0.082
					c0.915,2.259,1.761,4.546,2.599,6.834c3.898,10.657,14,17.754,25.633,14.554c10.272-2.825,18.459-14.956,14.554-25.632
					c-7.052-19.278-16.149-37.271-27.826-54.146c-10.301-14.888-22.114-28.666-29.906-45.147
					c-4.854-10.267-19.361-12.834-28.51-7.476C164.626,168.115,162.722,180.249,167.577,190.517L167.577,190.517z"/>
			</g>
			<g>
				<path fill="#8FCCFF" d="M172.824,187.45c7.534,15.936,18.783,29.479,28.931,43.758c10.433,14.679,19.19,30.57,25.212,47.032
					c2.761,7.549,9.917,12.575,18.157,10.31c7.276-2.002,13.076-10.595,10.309-18.157c-6.868-18.775-15.841-36.26-27.213-52.695
					c-10.3-14.887-22.114-28.666-29.906-45.146c-3.438-7.273-13.715-9.091-20.195-5.295
					C170.734,171.581,169.385,180.176,172.824,187.45L172.824,187.45z"/>
			</g>
		</g>
		<g>
			<g>
				<path fill="#FFFFFF" d="M158.694,274.253c14.783,13.183,31.636,24.343,51.14,28.964c15.78,3.738,31.856,2.742,47.543-0.881
					c11.828-2.731,23.119-7.322,34.7-10.885c2.642-0.813,5.31-1.539,7.996-2.188c2.08-0.503,11.444-1.875,3.335-0.86
					c2.592-0.324,5.204-0.421,7.813-0.378c1.3,0.022,2.596,0.137,3.889,0.268c-7.61-0.768-1.586-0.139,0.284,0.315
					c11.029,2.68,22.554-3.361,25.633-14.554c2.941-10.693-3.519-22.952-14.554-25.632c-25.95-6.303-49.26,4.948-73.607,12.006
					c-2.903,0.842-5.837,1.572-8.788,2.224c-1.489,0.329-2.989,0.604-4.49,0.87c-5.723,1.012,3.607-0.377-0.169,0.051
					c-3.112,0.353-6.245,0.466-9.374,0.449c-1.604-0.009-3.207-0.11-4.806-0.225c-5.915-0.427,3.225,0.592-0.586-0.023
					c-3.426-0.552-6.786-1.454-10.091-2.499c-1.757-0.555-3.477-1.224-5.188-1.905c5.652,2.251-0.544-0.404-1.647-0.961
					c-3.809-1.924-7.421-4.216-10.94-6.62c-0.944-0.656-1.879-1.326-2.803-2.011c1.861,1.476,1.847,1.462-0.042-0.042
					c-1.983-1.583-3.886-3.263-5.779-4.951c-8.47-7.553-21.098-8.371-29.469,0C151.01,252.469,150.213,266.69,158.694,274.253
					L158.694,274.253z"/>
			</g>
			<g>
				<path fill="#8FCCFF" d="M162.992,269.956c14.016,12.498,29.976,23.021,48.458,27.4c14.681,3.479,29.724,2.489,44.312-0.88
					c11.828-2.731,23.119-7.323,34.7-10.886c2.642-0.813,5.31-1.538,7.997-2.188c1.312-0.317,2.634-0.586,3.958-0.846
					c0.935-0.183,5.583-0.806,0.993-0.231c2.592-0.324,5.204-0.421,7.813-0.378c1.3,0.022,2.596,0.137,3.889,0.267
					c-4.668-0.47,0.807,0.269,1.899,0.534c7.812,1.897,15.976-2.382,18.157-10.31c2.084-7.575-2.492-16.258-10.309-18.157
					c-24.629-5.982-47.264,5.307-70.376,12.006c-2.904,0.842-5.837,1.572-8.789,2.225c-1.489,0.329-2.988,0.604-4.489,0.87
					c-0.755,0.129-1.512,0.249-2.271,0.36c2.02-0.263,2.182-0.293,0.486-0.093c-3.112,0.354-6.245,0.466-9.374,0.449
					c-1.604-0.009-3.207-0.109-4.806-0.225c-0.813-0.065-1.625-0.146-2.435-0.239c1.88,0.267,1.958,0.267,0.232-0.001
					c-3.426-0.552-6.786-1.454-10.091-2.499c-1.757-0.556-3.477-1.224-5.188-1.905c2.475,0.985-2.632-1.339-3.099-1.574
					c-7.982-4.03-14.352-8.828-20.795-14.574c-6-5.35-14.944-5.93-20.874,0C157.548,254.524,156.984,264.599,162.992,269.956
					L162.992,269.956z"/>
			</g>
		</g>
		<g>
			<g>
				<path fill="#FFFFFF" d="M230.393,191.707c-3.93,8.058-8.377,15.843-13.247,23.368c-2.945,4.551-6.093,8.967-9.378,13.277
					c3.773-4.949,1.062-1.408,0.246-0.391c-1.032,1.287-2.093,2.549-3.159,3.808c-1.898,2.242-3.873,4.417-5.88,6.561
					c-4.107,4.386-8.5,8.497-13.093,12.369c-0.996,0.84-2.016,1.65-3.035,2.46c4.93-3.917,0.043-0.108-1.02,0.651
					c-2.494,1.781-5.081,3.427-7.706,5.007c-2.64,1.59-5.373,3.021-8.139,4.375c-1.192,0.584-2.406,1.12-3.62,1.656
					c5.809-2.564,0.02-0.112-1.231,0.34c-2.964,1.069-6,1.923-9.057,2.681c-1.773,0.439-3.569,0.783-5.366,1.112
					c-0.909,0.159-1.821,0.305-2.734,0.435c3.238-0.424,3.696-0.507,1.373-0.252c-11.296,1.153-20.837,8.606-20.837,20.838
					c0,10.484,9.516,21.993,20.837,20.838c31.376-3.202,58.333-18.106,80.441-40.29c16.557-16.613,30.319-36.743,40.593-57.808
					c4.979-10.209,2.863-22.454-7.476-28.51C249.664,178.819,235.37,181.502,230.393,191.707L230.393,191.707z"/>
			</g>
			<g>
				<path fill="#8FCCFF" d="M235.641,194.774c-3.93,8.058-8.377,15.843-13.247,23.368c-2.945,4.551-6.093,8.967-9.378,13.277
					c2.117-2.777-0.398,0.458-0.705,0.84c-1.032,1.287-2.094,2.549-3.159,3.808c-1.898,2.242-3.873,4.417-5.88,6.56
					c-4.107,4.386-8.5,8.498-13.093,12.369c-0.996,0.84-2.016,1.65-3.035,2.461c2.478-1.969-1.805,1.282-2.25,1.601
					c-2.494,1.782-5.081,3.427-7.706,5.008c-2.64,1.59-5.372,3.02-8.139,4.375c-1.192,0.583-2.406,1.12-3.62,1.656
					c2.899-1.28-2.16,0.763-2.682,0.951c-2.964,1.07-6,1.924-9.057,2.682c-1.774,0.439-3.569,0.783-5.366,1.112
					c-0.909,0.159-1.821,0.304-2.735,0.435c1.62-0.229,1.539-0.24-0.243-0.035c-8.001,0.817-14.76,6.097-14.76,14.761
					c0,7.427,6.741,15.578,14.76,14.761c53.595-5.47,93.282-48.943,115.786-95.088c3.527-7.231,2.028-15.905-5.295-20.195
					C249.292,185.645,239.166,187.545,235.641,194.774L235.641,194.774z"/>
			</g>
		</g>
		<g>
			<g>
				<path fill="#FFFFFF" d="M116.282,433.044c-2.607-2.243-5.087-4.583-7.449-7.084c-1.09-1.155-2.103-2.38-3.111-3.605
					c3.367,4.091,0.31,0.228-0.273-0.642c-1.562-2.328-2.851-4.824-4.018-7.368c2.638,5.753-0.333-1.957-0.731-3.684
					c-0.333-1.438-0.712-5.836-0.018,0.588c-0.133-1.23-0.156-2.469-0.179-3.704c-0.023-1.231,0.063-2.462,0.148-3.689
					c0.314-4.523-0.879,5.127-0.053,0.656c0.455-2.466,1.213-4.865,2.051-7.224c1.537-4.325-2.059,4.456-0.087,0.253
					c0.746-1.592,1.62-3.12,2.505-4.637c0.682-1.166,1.437-2.288,2.19-3.409c0.642-0.955,3.596-4.694,0.06-0.229
					c1.79-2.261,3.767-4.366,5.785-6.422c2.113-2.152,4.386-4.143,6.693-6.082c4.042-3.396-3.583,2.617,0.715-0.584
					c1.284-0.957,2.608-1.858,3.931-2.76c4.213-2.871,8.648-5.363,13.252-7.546c1.228-0.582,5.25-2.265-0.627,0.193
					c1.112-0.466,2.24-0.893,3.367-1.32c2.682-1.019,5.417-1.89,8.166-2.708c4.858-1.447,9.82-2.525,14.809-3.404
					c1.271-0.224,2.547-0.412,3.823-0.602c-6.376,0.944-1.734,0.25-0.388,0.101c2.597-0.29,5.205-0.475,7.813-0.625
					c5.244-0.303,10.503-0.257,15.747,0.004c2.617,0.13,5.227,0.367,7.832,0.642c1.339,0.141,6.001,0.842-0.369-0.075
					c1.711,0.246,3.413,0.551,5.113,0.864c5.025,0.926,9.976,2.227,14.841,3.781c2.383,0.762,4.724,1.645,7.047,2.571
					c-6.374-2.544,1.351,0.73,2.839,1.484c2.154,1.092,4.24,2.313,6.294,3.581c1.413,0.872,8.06,5.769,2.582,1.521
					c4.006,3.106,7.594,6.717,10.805,10.631c7.212,8.793,22.032,7.437,29.469,0c8.618-8.618,7.196-20.695,0-29.469
					c-14.577-17.771-36.951-28.512-59.01-33.511c-23.989-5.437-49.09-4.962-73.032,0.418c-24.25,5.45-47.353,18.231-64.193,36.597
					c-9.255,10.092-16.714,22.271-19.952,35.671c-3.63,15.021-1.16,29.191,4.775,43.16c4.464,10.505,12.804,19.768,21.367,27.134
					c8.603,7.399,20.991,8.479,29.469,0C123.859,454.936,124.899,440.457,116.282,433.044L116.282,433.044z"/>
			</g>
			<g>
				<path fill="#8FCCFF" d="M111.985,437.341c-4.771-4.104-9.389-8.991-11.783-12.561c-1.562-2.328-2.851-4.824-4.018-7.368
					c1.323,2.884-0.251-1.059-0.369-1.42c-0.397-1.219-0.688-2.469-0.976-3.716c-0.137-0.593-0.63-4.687-0.235-1.027
					c-0.133-1.23-0.156-2.469-0.179-3.704c-0.022-1.231,0.063-2.462,0.148-3.689c0.284-4.088-0.583,3.083,0.164-0.96
					c0.455-2.465,1.214-4.865,2.051-7.223c1.403-3.95-1.278,2.646,0.525-1.199c0.746-1.592,1.62-3.12,2.505-4.636
					c0.682-1.167,1.437-2.289,2.19-3.41c0.109-0.163,2.819-3.744,1.009-1.458c1.79-2.261,3.767-4.367,5.785-6.422
					c2.113-2.152,4.386-4.144,6.693-6.083c3.813-3.204-2.116,1.491,1.945-1.534c1.284-0.956,2.608-1.857,3.931-2.759
					c4.213-2.872,8.648-5.364,13.252-7.547c0.511-0.242,4.162-1.814,0.824-0.419c1.113-0.466,2.24-0.893,3.367-1.32
					c2.682-1.019,5.418-1.89,8.166-2.708c4.858-1.447,9.82-2.525,14.81-3.404c1.271-0.224,2.547-0.412,3.823-0.602
					c-3.545,0.525,0.748-0.063,1.228-0.117c2.597-0.289,5.205-0.474,7.813-0.624c5.244-0.303,10.503-0.257,15.747,0.004
					c2.617,0.13,5.227,0.367,7.832,0.642c0.471,0.05,4.777,0.649,1.247,0.142c1.711,0.246,3.413,0.551,5.113,0.864
					c5.025,0.926,9.976,2.227,14.841,3.781c2.383,0.762,4.725,1.645,7.047,2.571c-3.241-1.294,0.541,0.273,0.999,0.483
					c1.111,0.509,2.202,1.062,3.292,1.614c2.155,1.092,4.24,2.313,6.295,3.581c1.016,0.626,2.003,1.297,2.99,1.969
					c0.451,0.307,3.643,2.689,0.822,0.503c4.006,3.105,7.594,6.716,10.805,10.631c5.109,6.229,15.606,5.268,20.874,0
					c6.105-6.105,5.098-14.66,0-20.875c-29.164-35.555-84.065-40.981-126.129-31.529c-23.306,5.237-45.321,17.378-61.512,35.033
					c-8.563,9.339-15.396,20.601-18.389,32.99c-3.211,13.287-1.099,26.094,4.163,38.477c4.281,10.072,12.213,18.847,20.417,25.904
					c6.093,5.241,14.869,6.005,20.874,0C117.352,452.849,118.089,442.592,111.985,437.341L111.985,437.341z"/>
			</g>
		</g>
		<g>
			<g>
				<path fill="#FFFFFF" d="M167.974,385.343c-3.728-2.152-7.348-4.476-10.915-6.884c-2-1.35-3.969-2.743-5.928-4.15
					c-1.196-0.858-2.379-1.735-3.562-2.613c-1.14-0.847-5.624-4.31-0.372-0.24c-10.066-7.8-19.602-16.3-28.459-25.448
					c-4.564-4.714-8.875-9.668-12.931-14.824c3.714,4.722,0.897,1.111,0.165,0.112c-0.999-1.361-1.955-2.754-2.903-4.151
					c-1.846-2.722-3.543-5.54-5.147-8.41c-1.35-2.413-2.551-4.904-3.673-7.43c2.748,6.184,0.525,1.081,0.02-0.342
					c-0.496-1.398-0.91-2.823-1.307-4.251c-0.389-1.396-0.687-2.815-0.966-4.237c-0.724-3.673,0.536,5.848,0.049,0.276
					c-0.242-2.767-0.13-5.548,0.171-8.304c1.239-11.314-10.416-20.838-20.837-20.838c-12.294,0-19.602,9.551-20.837,20.838
					c-3.245,29.639,17.073,57.613,36.007,78.149c17.33,18.796,38.225,35.932,60.392,48.731c9.84,5.683,22.751,2.354,28.51-7.476
					C181.166,404.094,177.795,391.014,167.974,385.343L167.974,385.343z"/>
			</g>
			<g>
				<path fill="#8FCCFF" d="M164.907,390.59c-3.728-2.152-7.348-4.475-10.915-6.883c-1.999-1.35-3.969-2.743-5.928-4.15
					c-1.196-0.859-2.379-1.735-3.562-2.613c-0.533-0.396-4.522-3.453-1.602-1.19c-10.066-7.8-19.602-16.3-28.459-25.449
					c-4.564-4.714-8.875-9.668-12.931-14.823c2.013,2.559-0.563-0.814-0.786-1.118c-0.999-1.361-1.955-2.754-2.903-4.151
					c-1.846-2.722-3.543-5.54-5.147-8.41c-1.35-2.413-2.551-4.904-3.673-7.43c1.56,3.511-0.35-1.109-0.593-1.794
					c-0.496-1.397-0.91-2.823-1.307-4.251c-0.389-1.396-0.686-2.815-0.966-4.236c-0.273-1.66-0.26-1.406,0.04,0.76
					c-0.085-0.698-0.154-1.397-0.207-2.1c-0.242-2.767-0.13-5.548,0.171-8.304c0.877-8.015-7.378-14.761-14.76-14.761
					c-8.708,0-13.885,6.766-14.76,14.761c-3.073,28.068,16.304,54.412,34.228,73.852c16.993,18.431,37.421,35.228,59.162,47.782
					C166.523,425.617,181.382,400.104,164.907,390.59L164.907,390.59z"/>
			</g>
		</g>
	</g>
</g>
<g id="Short">
	<g>
		<g>
			<path fill="#5B80A5" d="M341.385,257.224c9.444,6.111,28.434,8.123,43.2,3.465c20.689-6.531,28.611-47.499,59.589-41.666
				c6.712,1.268,5.378,5.69-0.421,9.444c-9.444,6.111-18.335,13.757-25.19,30.034c-5.267,12.5-16.333,33.723-51.333,33.723
				c-13.889,0-23.622-2.777-23.622-2.777L341.385,257.224z"/>
		</g>
		<ellipse fill="#FFFFFF" cx="434.028" cy="223.234" rx="3.75" ry="2.5"/>
		<ellipse fill="#FFFFFF" cx="422.361" cy="229.578" rx="3.75" ry="2.5"/>
		<ellipse fill="#FFFFFF" cx="415.232" cy="238.05" rx="3.75" ry="2.5"/>
		<ellipse fill="#FFFFFF" cx="408.982" cy="247.634" rx="3.75" ry="2.5"/>
		<ellipse fill="#FFFFFF" cx="401.854" cy="256.661" rx="3.75" ry="2.5"/>
		<ellipse fill="#FFFFFF" cx="392.223" cy="264.349" rx="3.75" ry="2.5"/>
		<ellipse fill="#FFFFFF" cx="378.751" cy="269.349" rx="3.75" ry="2.5"/>
		<ellipse fill="#FFFFFF" cx="365.232" cy="269.349" rx="3.75" ry="2.5"/>
		<ellipse fill="#FFFFFF" cx="351.667" cy="267.216" rx="3.75" ry="2.5"/>
	</g>
	<g>
		<g>
			<path fill="#5B80A5" d="M649.072,371.673c-42.371,0-71.808-8.261-73.041-8.612l-2.902-0.828l0.002-103.803l5.819,2.971
				c17.47,8.918,42.601,14.032,68.95,14.032c18.76,0,37.027-2.634,52.826-7.617c23.958-7.563,42.37-31.512,61.862-56.866
				c27.192-35.369,55.309-71.942,103-71.942c5.992,0,12.237,0.604,18.563,1.795c12.341,2.33,15.926,7.884,16.76,12.134
				c1.458,7.423-4.596,16.141-16.609,23.918c-26.732,17.297-54.344,40.131-75.206,89.666c-8.492,20.155-21.31,45.994-45.253,67.077
				C735.151,358.862,696.537,371.673,649.072,371.673z"/>
			<path fill="#FFFFFF" d="M865.589,143.007c5.659,0,11.581,0.551,17.823,1.726c20.441,3.86,16.379,17.33-1.283,28.763
				c-28.764,18.612-55.84,41.897-76.719,91.471c-16.039,38.068-49.743,102.705-156.338,102.705c-42.299,0-71.943-8.459-71.943-8.459
				l0.002-94.251c18.045,9.212,43.967,14.47,70.769,14.47c18.343,0,37.095-2.461,54.029-7.803
				C760.772,253.055,785.717,143.007,865.589,143.007 M865.589,135.007c-22.419,0-42.795,7.909-62.291,24.178
				c-16.623,13.871-30.479,31.896-43.881,49.327c-19.098,24.841-37.137,48.305-59.896,55.489
				c-15.413,4.862-33.263,7.432-51.621,7.432c-25.737,0-50.206-4.955-67.131-13.595l-11.637-5.94l0,13.065l-0.002,94.251v6.036
				l5.805,1.657c1.254,0.357,31.214,8.766,74.138,8.766c48.467,0,87.971-13.146,117.415-39.073
				c24.553-21.62,37.639-47.978,46.296-68.525c19.304-45.836,43.42-68.273,73.692-87.861c13.658-8.842,20.179-18.802,18.363-28.048
				c-1.073-5.461-5.403-12.548-19.941-15.293C878.323,135.635,871.829,135.007,865.589,135.007L865.589,135.007z"/>
		</g>
		<path fill="#FFFFFF" d="M841.09,157.56c0,4.206,5.117,7.614,11.422,7.614c6.311,0,11.422-3.408,11.422-7.614
			c0-4.202-5.111-7.614-11.422-7.614C846.207,149.946,841.09,153.358,841.09,157.56z"/>
		<ellipse fill="#FFFFFF" cx="816.98" cy="176.88" rx="11.421" ry="7.614"/>
		<ellipse fill="#FFFFFF" cx="795.269" cy="202.683" rx="11.421" ry="7.613"/>
		<path fill="#FFFFFF" d="M764.812,231.871c0,4.201,5.117,7.614,11.422,7.614s11.421-3.413,11.421-7.614
			c0-4.205-5.116-7.614-11.421-7.614S764.812,227.666,764.812,231.871z"/>
		<path fill="#FFFFFF" d="M743.101,259.364c0,4.205,5.114,7.614,11.421,7.614c6.305,0,11.421-3.409,11.421-7.614
			s-5.116-7.613-11.421-7.613C748.215,251.751,743.101,255.159,743.101,259.364z"/>
		<path fill="#FFFFFF" d="M713.77,282.776c0,4.201,5.116,7.615,11.421,7.615c6.308,0,11.42-3.414,11.42-7.615
			c0-4.205-5.112-7.613-11.42-7.613C718.886,275.163,713.77,278.571,713.77,282.776z"/>
		<path fill="#FFFFFF" d="M672.74,298.004c0,4.201,5.116,7.615,11.421,7.615c6.308,0,11.421-3.414,11.421-7.615
			c0-4.205-5.113-7.612-11.421-7.612C677.856,290.392,672.74,293.799,672.74,298.004z"/>
		<path fill="#FFFFFF" d="M631.569,298.004c0,4.201,5.115,7.615,11.42,7.615s11.421-3.414,11.421-7.615
			c0-4.205-5.116-7.612-11.421-7.612S631.569,293.799,631.569,298.004z"/>
		<path fill="#FFFFFF" d="M590.254,291.511c0,4.203,5.116,7.612,11.421,7.612c6.308,0,11.421-3.409,11.421-7.612
			c0-4.201-5.113-7.615-11.421-7.615C595.371,283.896,590.254,287.31,590.254,291.511z"/>
	</g>
</g>
<g id="Border">
	<g>
		
			<line fill="none" stroke="#FFFFFF" stroke-width="33.3333" stroke-miterlimit="10" x1="332.681" y1="9.999" x2="332.681" y2="490"/>
	</g>
	
		<line fill="none" stroke="#5B80A5" stroke-width="22.2222" stroke-miterlimit="10" x1="332.681" y1="0" x2="332.681" y2="500.001"/>
</g>
<g id="small">
</g>
</svg>
