<?xml version="1.0" encoding="utf-8"?>
<!-- Generator: Adobe Illustrator 16.0.0, SVG Export Plug-In . SVG Version: 6.00 Build 0)  -->
<!DOCTYPE svg PUBLIC "-//W3C//DTD SVG 1.1//EN" "http://www.w3.org/Graphics/SVG/1.1/DTD/svg11.dtd">
<svg version="1.1" xmlns="http://www.w3.org/2000/svg" xmlns:xlink="http://www.w3.org/1999/xlink" x="0px" y="0px" width="500px"
	 height="500px" viewBox="0 0 500 500" enable-background="new 0 0 500 500" xml:space="preserve">
<g id="BG">
	<path fill="#FFFFFF" stroke="#8FCCFF" stroke-width="30" stroke-miterlimit="10" d="M474.999,399.511
		c0,41.695-33.798,75.489-75.488,75.489H100.489C58.798,475,25,441.206,25,399.511V100.489C25,58.798,58.798,25,100.489,25h299.022
		c41.69,0,75.488,33.798,75.488,75.489V399.511z"/>
</g>
<g id="Long">
	<g>
		<g>
			<g>
				<path fill="#FFFFFF" d="M247.393,382.51c3.07,3.74-2.739-3.686-0.633-0.852c0.939,1.264,1.818,2.572,2.683,3.888
					c1.905,2.897,3.583,5.938,5.125,9.041c0.319,0.652,0.629,1.309,0.93,1.97c1.757,3.787-1.933-4.819-0.389-0.915
					c0.682,1.723,1.253,3.485,1.791,5.258c0.537,1.77,0.943,3.574,1.307,5.386c0.375,2.201,0.296,1.443-0.236-2.275
					c0.144,1.084,0.21,2.175,0.274,3.266c0.085,1.442,0.036,2.889-0.038,4.33c-0.2,2.214-0.072,1.438,0.384-2.329
					c-0.153,1.065-0.411,2.112-0.669,3.157c-0.186,0.696-0.396,1.386-0.63,2.067c-1.272,3.927,2.229-4.687,0.372-0.95
					c-0.778,1.565-4.777,6.516-0.609,1.476c-1.333,1.611-2.905,3.006-4.505,4.342c4.727-3.948-1.336,0.513-2.734,1.275
					c-0.775,0.408-1.561,0.792-2.358,1.153c5.376-2.529,1.502-0.703,0.183-0.265c-1.991,0.662-4.052,1.092-6.114,1.463
					c6.63-1.195,0.94-0.206-0.678-0.131c-2.095,0.098-4.195-0.01-6.285-0.158c-2.269-0.231-1.686-0.128,1.75,0.312
					c-1.272-0.172-2.534-0.42-3.793-0.665c-2.13-0.416-4.228-0.984-6.313-1.58c-2.12-0.605-4.201-1.341-6.27-2.099
					c-0.833-0.312-1.663-0.635-2.488-0.968c5.573,2.208,1.172,0.481,0.045-0.027c-4.093-1.85-8.057-3.979-11.958-6.203
					c-13.301-7.581-25.265-17.083-37.563-26.13c-9.168-6.744-23.219-1.549-28.504,7.475c-6.196,10.576-1.654,21.789,7.474,28.504
					c31.521,23.186,68.786,51.996,110.562,40.751c24.874-6.696,43.26-28.71,42.409-54.8c-0.659-20.197-10.49-38.918-23.057-54.229
					c-7.214-8.789-22.026-7.437-29.463,0C238.778,361.661,240.195,373.741,247.393,382.51L247.393,382.51z"/>
			</g>
			<g>
				<path fill="#8FCCFF" d="M251.687,378.216c2.538,3.092-1.316-1.819,0.316,0.377c0.939,1.265,1.818,2.572,2.683,3.888
					c1.905,2.897,3.584,5.938,5.125,9.041c0.319,0.652,0.629,1.31,0.93,1.97c1.579,3.405-1.167-2.977,0.223,0.536
					c0.681,1.723,1.253,3.485,1.791,5.258c0.537,1.77,0.943,3.574,1.307,5.386c0.277,1.667,0.271,1.446-0.019-0.661
					c0.144,1.084,0.21,2.175,0.274,3.266c0.085,1.442,0.036,2.889-0.038,4.33c-0.157,1.673-0.102,1.434,0.167-0.715
					c-0.153,1.066-0.411,2.113-0.669,3.157c-0.186,0.696-0.395,1.386-0.629,2.067c-1.133,3.498,1.417-2.833-0.241,0.501
					c-0.439,0.884-3.762,5.368-1.559,2.704c-1.332,1.611-2.905,3.006-4.504,4.342c1.212-0.96,1.105-0.931-0.322,0.088
					c-1.167,0.788-2.407,1.464-3.642,2.138c-0.774,0.408-1.561,0.792-2.358,1.153c2.973-1.399-0.828,0.201-1.268,0.348
					c-1.991,0.662-4.052,1.091-6.114,1.463c3.67-0.662-1.546,0.051-2.292,0.086c-2.095,0.098-4.195-0.01-6.285-0.158
					c-1.728-0.186-1.683-0.154,0.135,0.094c-1.273-0.172-2.534-0.419-3.794-0.665c-2.13-0.415-4.228-0.983-6.312-1.579
					c-2.12-0.605-4.201-1.341-6.27-2.1c-0.834-0.312-1.664-0.634-2.489-0.968c2.983,1.183-1.112-0.507-1.405-0.639
					c-4.093-1.851-8.057-3.979-11.957-6.203c-13.301-7.581-25.266-17.083-37.564-26.13c-6.496-4.778-16.45-1.098-20.195,5.295
					c-4.39,7.494-1.172,15.438,5.295,20.195c29.972,22.047,66.02,50.869,105.881,40.139c22.349-6.016,38.714-25.517,37.95-48.943
					c-0.603-18.472-9.777-35.924-21.278-49.935c-5.111-6.227-15.605-5.269-20.874,0
					C245.583,363.444,246.587,372.003,251.687,378.216L251.687,378.216z"/>
			</g>
		</g>
		<g>
			<g>
				<path fill="#FFFFFF" d="M179.968,410.27c-2.071,2.031-4.233,3.949-6.471,5.796c-2.707,2.233,4.069-2.988-0.589,0.445
					c-1.731,1.275-3.516,2.477-5.312,3.658c-3.425,2.255-6.994,4.283-10.624,6.188c-1.667,0.875-3.37,1.681-5.077,2.475
					c-2.077,0.92-1.726,0.788,1.055-0.396c-1.32,0.554-2.662,1.055-4.003,1.554c-4.023,1.498-8.166,2.647-12.356,3.563
					c-1.321,0.289-7.864,1.164-1.445,0.382c-2.317,0.282-4.652,0.373-6.984,0.404c-1.852,0.024-3.7-0.104-5.543-0.258
					c6.506,0.545-1.01-0.31-2.623-0.715c-1.804-0.454-3.554-1.092-5.289-1.756c5.695,2.18-1.333-1.012-2.643-1.821
					c-9.667-5.975-22.875-2.136-28.504,7.475c-5.846,9.979-2.168,22.545,7.474,28.504c38.212,23.615,89.063,2.742,118.398-26.035
					c8.104-7.95,7.969-21.494,0-29.463C201.347,402.186,188.07,402.321,179.968,410.27L179.968,410.27z"/>
			</g>
			<g>
				<path fill="#8FCCFF" d="M184.262,414.563c-2.071,2.032-4.233,3.95-6.471,5.796c-1.278,1.017-1.222,0.988,0.168-0.086
					c-0.657,0.501-1.319,0.994-1.987,1.481c-1.731,1.275-3.516,2.476-5.312,3.658c-3.425,2.255-6.995,4.283-10.624,6.188
					c-1.668,0.875-3.371,1.681-5.078,2.475c-1.6,0.701-1.732,0.773-0.396,0.217c-1.32,0.554-2.662,1.054-4.003,1.554
					c-4.023,1.498-8.166,2.646-12.356,3.563c-0.551,0.12-6.152,0.976-3.06,0.599c-2.317,0.282-4.652,0.373-6.984,0.404
					c-1.852,0.024-3.7-0.104-5.543-0.258c1.633,0.265,1.572,0.253-0.185-0.034c-1.367-0.224-2.71-0.561-4.052-0.897
					c-1.804-0.454-3.554-1.092-5.289-1.756c1.371,0.556,1.259,0.466-0.336-0.272c-1.297-0.64-2.529-1.401-3.757-2.161
					c-6.849-4.232-16.207-1.514-20.195,5.295c-4.142,7.07-1.536,15.974,5.295,20.195c35.817,22.136,83.658,1.773,111.038-25.085
					c5.742-5.633,5.646-15.229,0-20.875C199.409,408.836,190.002,408.933,184.262,414.563L184.262,414.563z"/>
			</g>
		</g>
		<g>
			<g>
				<path fill="#FFFFFF" d="M145.345,269.168c-2.773-0.114-5.539-0.288-8.304-0.531c-1.308-0.115-2.611-0.268-3.915-0.422
					c6.407,0.757,1.929,0.245,0.561,0.025c-4.859-0.783-9.648-1.968-14.323-3.504c-0.98-0.322-1.948-0.684-2.914-1.046
					c-3.715-1.393,4.873,2.15,1.313,0.575c-1.721-0.762-3.389-1.636-5.031-2.553c-1.549-0.865-3.033-1.84-4.487-2.854
					c-2.953-2.059,4.285,3.429,1.519,1.198c-0.854-0.688-1.665-1.429-2.467-2.177c-1.166-1.087-2.241-2.267-3.279-3.475
					c-2.233-2.597,3.365,4.509,1.345,1.771c-0.455-0.616-0.875-1.258-1.294-1.898c-0.829-1.267-1.551-2.6-2.235-3.949
					c-0.743-1.467-2-4.599,0.865,2.238c-0.387-0.923-0.715-1.868-1.037-2.815c-0.483-1.426-0.855-2.887-1.192-4.354
					c-0.17-0.738-0.304-1.484-0.438-2.229c-0.613-3.407,0.724,5.965,0.321,2.516c-0.394-3.364-0.381-6.767-0.167-10.143
					c0.051-0.8,0.132-1.597,0.213-2.395c0.359-3.547-0.851,5.867-0.32,2.323c0.244-1.631,0.572-3.249,0.925-4.859
					c0.788-3.597,1.883-7.123,3.128-10.585c0.294-0.818,0.611-1.627,0.928-2.437c1.333-3.408-2.208,5.111-0.75,1.74
					c0.704-1.628,1.472-3.228,2.258-4.817c1.732-3.502,3.696-6.886,5.783-10.187c0.974-1.541,2.001-3.047,3.045-4.541
					c1.028-1.472,5.309-6.985,0.566-0.915c2.437-3.119,5.061-6.087,7.795-8.947c2.497-2.611,5.145-5.075,7.88-7.433
					c1.377-1.188,6.815-5.364,0.631-0.645c1.625-1.24,3.303-2.408,5.002-3.542c2.609-1.742,5.33-3.312,8.112-4.759
					c10.065-5.235,12.998-19.075,7.474-28.504c-5.944-10.148-18.428-12.715-28.504-7.474c-29.761,15.48-53.347,45.795-62.501,77.899
					c-4.352,15.264-5.298,33.197,0.668,48.178c7.854,19.718,22.557,31.964,41.914,39.856c12.782,5.212,27.242,6.771,40.91,7.333
					c11.354,0.468,20.833-9.83,20.833-20.833C166.178,278.291,156.688,269.635,145.345,269.168L145.345,269.168z"/>
			</g>
			<g>
				<path fill="#8FCCFF" d="M145.345,275.24c-2.773-0.113-5.539-0.287-8.304-0.53c-1.308-0.115-2.611-0.269-3.915-0.422
					c3.586,0.424-0.52-0.106-1.054-0.192c-4.859-0.782-9.648-1.967-14.322-3.503c-0.981-0.322-1.948-0.684-2.914-1.046
					c-3.3-1.237,3.013,1.356-0.138-0.037c-1.721-0.762-3.389-1.636-5.031-2.553c-1.549-0.865-3.033-1.84-4.487-2.854
					c-2.574-1.795,2.695,2.188,0.29,0.249c-0.854-0.689-1.665-1.43-2.467-2.178c-1.167-1.087-2.242-2.267-3.28-3.474
					c-1.924-2.238,2.133,2.897,0.396,0.541c-0.455-0.616-0.875-1.258-1.294-1.898c-0.829-1.267-1.551-2.601-2.235-3.949
					c-0.471-0.929-1.579-3.585,0.253,0.787c-0.387-0.923-0.716-1.868-1.037-2.814c-0.483-1.426-0.855-2.887-1.192-4.354
					c-0.17-0.738-0.304-1.484-0.438-2.23c-0.523-2.911,0.449,3.851,0.104,0.901c-0.393-3.364-0.381-6.767-0.166-10.143
					c0.051-0.8,0.132-1.597,0.213-2.395c0.309-3.053-0.561,3.762-0.104,0.708c0.244-1.631,0.573-3.249,0.925-4.859
					c0.788-3.598,1.883-7.123,3.128-10.585c0.294-0.818,0.611-1.627,0.928-2.437c1.163-2.975-1.412,3.233-0.138,0.289
					c0.704-1.628,1.472-3.228,2.258-4.817c1.732-3.501,3.696-6.886,5.782-10.187c0.974-1.541,2.001-3.047,3.045-4.541
					c0.637-0.912,4.381-5.81,1.516-2.144c2.437-3.118,5.061-6.087,7.796-8.947c2.497-2.611,5.144-5.075,7.879-7.433
					c0.857-0.739,5.647-4.484,1.861-1.594c1.625-1.24,3.303-2.407,5.002-3.542c2.61-1.742,5.33-3.312,8.112-4.759
					c7.131-3.709,9.208-13.514,5.295-20.195c-4.212-7.19-13.057-9.008-20.195-5.295c-28.411,14.778-50.966,43.604-59.71,74.27
					c-4.088,14.337-4.932,30.889,0.668,44.949c6.981,17.526,20.493,28.61,37.672,35.616c12.304,5.017,26.13,6.573,39.296,7.116
					c8.044,0.331,14.76-6.965,14.76-14.761C160.105,281.704,153.381,275.571,145.345,275.24L145.345,275.24z"/>
			</g>
		</g>
		<g>
			<g>
				<path fill="#FFFFFF" d="M291.86,82.779c-0.558-13.531-5.029-25.769-14.469-35.637c-9.34-9.765-22.535-14.165-35.621-15.568
					c-24.36-2.613-50.411,9.46-67.117,26.771c-16.096,16.679-22.588,38.596-24.938,61.088c-1.312,12.556-0.151,25.231,3.403,37.357
					c3.444,11.751,9.304,22.672,14.461,33.726c4.802,10.291,19.395,12.81,28.504,7.474c10.46-6.127,12.276-18.213,7.474-28.504
					c-1.7-3.643-3.479-7.247-5.206-10.876c-1.029-2.163-2.012-4.347-2.966-6.543c2.4,5.523-0.706-2.156-1.144-3.414
					c-1.567-4.497-2.668-9.13-3.437-13.826c0.364,2.806,0.42,2.995,0.169,0.566c-0.158-1.718-0.185-3.444-0.212-5.167
					c-0.037-2.393,0.142-4.791,0.307-7.176c0.112-1.609,0.271-3.215,0.438-4.819c0.088-0.802,0.183-1.603,0.286-2.403
					c-0.817,6.595-0.262,2.17-0.026,0.757c0.66-3.962,1.614-7.868,2.772-11.711c0.462-1.534,1.002-3.042,1.556-4.543
					c0.807-2.047,0.558-1.501-0.746,1.638c0.471-1.108,0.998-2.19,1.525-3.272c0.884-1.814,1.898-3.561,2.945-5.285
					c0.781-1.287,5.072-7.014,0.994-1.807c2.369-3.024,5.108-5.736,7.993-8.264c1.704-1.401,1.342-1.156-1.085,0.737
					c1.093-0.843,2.237-1.617,3.379-2.391c1.993-1.35,4.094-2.534,6.209-3.679c1.793-0.97,3.649-1.817,5.509-2.648
					c-4.99,2.231,2.389-0.698,3.686-1.079c2.174-0.639,4.401-1.075,6.632-1.456c-6.634,1.13,0.67,0.115,2.313,0.077
					c1.696-0.039,3.39,0.072,5.079,0.207c-6.851-0.55-0.047,0.101,1.699,0.542c0.768,0.206,1.528,0.436,2.281,0.688
					c4.144,1.319-4.547-2.154-0.653-0.335c1.724,0.806,3.327,1.84,4.878,2.933c-5.263-3.708-1.206-0.75-0.029,0.481
					c1.401,1.627,1.027,1.098-1.124-1.587c0.687,0.92,1.254,1.921,1.819,2.917c0.964,1.95,0.757,1.36-0.621-1.771
					c0.467,1.132,0.792,2.316,1.116,3.494c0.209,0.822,0.385,1.652,0.529,2.488c-1.161-6.027-0.295-1.714-0.232-0.179
					c0.468,11.343,9.123,20.833,20.833,20.833C282.029,103.613,292.328,94.133,291.86,82.779L291.86,82.779z"/>
			</g>
			<g>
				<path fill="#8FCCFF" d="M285.787,82.779c-0.49-11.886-4.397-22.673-12.69-31.343c-8.167-8.538-19.856-12.559-31.326-13.789
					c-22.885-2.455-47.118,8.718-62.823,24.992c-14.901,15.439-20.983,35.96-23.159,56.793c-1.259,12.054-0.227,24.098,3.187,35.742
					c3.299,11.253,8.911,21.693,13.849,32.275c3.402,7.291,13.741,9.076,20.195,5.295c7.412-4.342,8.698-12.904,5.295-20.195
					c-1.7-3.643-3.479-7.247-5.206-10.877c-1.029-2.163-2.011-4.347-2.966-6.543c0.542,1.257,0.477,1.06-0.198-0.593
					c-0.559-1.41-1.06-2.841-1.559-4.272c-3.488-10.012-4.119-16.711-3.389-27.217c0.112-1.609,0.271-3.215,0.438-4.819
					c0.087-0.802,0.183-1.603,0.286-2.403c-0.469,3.788,0.089-0.248,0.19-0.858c0.66-3.962,1.615-7.867,2.772-11.711
					c0.462-1.533,1.003-3.041,1.556-4.543c0.619-1.557,0.575-1.495-0.133,0.187c0.471-1.107,0.998-2.19,1.525-3.271
					c0.885-1.814,1.898-3.561,2.945-5.285c0.444-0.73,3.966-5.618,1.943-3.036c6.055-7.73,9.422-10.054,17.725-14.546
					c4.484-2.426,5.788-2.913,10.646-4.34c2.174-0.639,4.401-1.075,6.632-1.455c-1.723,0.217-1.713,0.232,0.028,0.047
					c1.296-0.126,2.599-0.157,3.9-0.187c1.696-0.039,3.39,0.072,5.079,0.208c-3.605-0.29,2.345,0.514,3.313,0.759
					c0.768,0.206,1.528,0.436,2.282,0.688c3.732,1.189-2.702-1.357,0.797,0.277c1.725,0.805,3.327,1.839,4.878,2.933
					c-3.049-2.148,0.624,0.828,1.201,1.431c1.058,1.239,1,1.12-0.174-0.358c0.686,0.92,1.254,1.921,1.819,2.917
					c0.721,1.485,0.718,1.378-0.008-0.32c0.467,1.131,0.791,2.316,1.116,3.493c0.209,0.823,0.386,1.652,0.53,2.489
					c-0.656-3.407-0.037,0.922-0.016,1.436c0.332,8.037,6.463,14.76,14.76,14.76C278.821,97.54,286.118,90.823,285.787,82.779
					L285.787,82.779z"/>
			</g>
		</g>
		<g>
			<g>
				<path fill="#FFFFFF" d="M81.593,115.027c3.438-2.066,6.984-3.918,10.598-5.655c1.417-0.682,9.257-4.063,3.17-1.515
					c2.538-1.062,5.109-2.044,7.688-3.001c10.845-4.028,22.047-7.103,33.399-9.312c2.545-0.495,5.106-0.906,7.67-1.292
					c-5.728,0.863-0.477,0.086,0.602-0.035c1.526-0.172,3.056-0.297,4.586-0.422c5.949-0.486,11.928-0.502,17.881-0.102
					c0.957,0.071,1.912,0.157,2.866,0.257c5.003,0.487-4.838-0.774,0.06,0.03c2.856,0.469,5.684,1.111,8.496,1.793
					c5.752,1.394,11.374,3.295,16.874,5.468c2.126,0.871,1.843,0.75-0.85-0.36c1.37,0.597,2.718,1.24,4.066,1.883
					c2.691,1.285,5.312,2.71,7.905,4.182c2.575,1.463,5.067,3.065,7.524,4.716c1.219,0.818,2.405,1.684,3.59,2.55
					c4.083,2.981-3.526-2.849,0.367,0.334c4.046,3.31,7.756,7.01,11.186,10.95c0.754,0.866,3.686,4.729,0.213,0.132
					c0.83,1.099,1.599,2.241,2.367,3.383c1.518,2.259,2.838,4.643,4.076,7.063c0.401,0.805,0.785,1.618,1.151,2.439
					c-2.466-5.375-0.559-1.182-0.13,0.023c1.095,3.078,1.781,6.296,2.453,9.486c0.346,1.641,0.605,3.298,0.862,4.955
					c-0.851-5.492-0.152-0.231-0.074,0.807c0.226,3.03,0.17,6.071,0.007,9.102c-0.063,1.175-0.729,6.267,0.105,0.358
					c-0.208,1.472-0.508,2.929-0.806,4.385c-0.612,2.983-1.49,5.908-2.427,8.803c-0.489,1.51-1.05,2.995-1.608,4.479
					c-1.938,5.156,1.83-4.053-0.439,1.146c-1.427,3.27-3.016,6.469-4.624,9.652c-5.123,10.136-2.759,22.51,7.474,28.504
					c9.342,5.473,23.385,2.654,28.504-7.474c7.363-14.569,13.115-29.164,15.056-45.423c1.663-13.931-0.231-29.264-5.232-42.376
					c-9.998-26.213-31.632-45.941-56.468-58.154c-24.965-12.277-51.983-17.316-79.613-13.673
					c-26.108,3.443-51.799,10.948-75.104,23.393c-1.507,0.805-2.984,1.665-4.449,2.545c-9.716,5.839-13.265,18.617-7.474,28.504
					C58.771,117.253,71.854,120.88,81.593,115.027L81.593,115.027z"/>
			</g>
			<g>
				<path fill="#8FCCFF" d="M78.528,109.783c3.438-2.066,6.984-3.918,10.598-5.656c1.116-0.537,2.244-1.046,3.372-1.557
					c0.345-0.156,4.249-1.826,1.249-0.57c2.538-1.062,5.109-2.044,7.688-3.002c10.845-4.028,22.048-7.102,33.4-9.311
					c6.512-1.267,7.884-1.429,14.473-1.967c5.949-0.486,11.928-0.501,17.881-0.102c4.43,0.297,6.752,0.773,13.036,2.296
					c5.752,1.395,11.374,3.295,16.875,5.468c1.642,0.667,1.842,0.75,0.6,0.252c1.37,0.596,2.718,1.24,4.066,1.883
					c2.691,1.284,5.313,2.709,7.905,4.182c2.575,1.462,5.067,3.065,7.524,4.715c1.219,0.819,2.405,1.685,3.59,2.55
					c3.835,2.801-2.057-1.704,1.596,1.284c4.046,3.31,7.756,7.011,11.186,10.95c0.126,0.145,2.958,3.737,1.163,1.362
					c0.83,1.098,1.599,2.241,2.367,3.383c1.518,2.259,2.838,4.643,4.076,7.063c0.401,0.805,0.785,1.618,1.151,2.439
					c-1.323-2.883,0.369,1.157,0.482,1.474c1.095,3.078,1.781,6.295,2.453,9.486c1.099,5.213,1.372,9.777,1.011,16.478
					c-0.008,0.15-0.536,4.98-0.111,1.973c-0.208,1.472-0.508,2.929-0.807,4.384c-0.612,2.984-1.49,5.908-2.427,8.803
					c-1.958,6.049-4.069,10.369-7.283,16.729c-3.629,7.181-1.955,15.948,5.295,20.195c6.619,3.877,16.568,1.88,20.195-5.295
					c6.829-13.513,12.422-27.247,14.227-42.358c1.605-13.447-0.188-28.103-5.016-40.762c-9.42-24.7-30.371-43.063-53.677-54.524
					c-24.045-11.825-49.982-16.347-76.548-12.844c-24.981,3.294-49.756,10.664-72.039,22.563c-1.508,0.805-2.985,1.665-4.449,2.544
					c-6.884,4.137-9.398,13.19-5.295,20.195C62.359,111.361,71.628,113.93,78.528,109.783L78.528,109.783z"/>
			</g>
		</g>
		<g>
			<g>
				<path fill="#FFFFFF" d="M145.383,173.544c2.994-1.817,6.042-3.512,9.155-5.114c1.561-0.803,3.151-1.548,4.739-2.295
					c0.784-0.369,7.688-3.294,3.111-1.408c7.113-2.932,14.404-5.425,21.688-7.89c12.864-4.352,25.813-8.36,38.735-12.529
					c29.212-9.423,68.75-25.01,69.047-61.53c0.092-11.357-9.547-20.833-20.833-20.833c-11.427,0-20.741,9.478-20.833,20.833
					c-0.013,1.645-0.88,5.627,0.238-0.296c-0.263,1.393-1.969,5.334,0.432-0.119c-0.527,1.196-1.239,2.304-1.939,3.403
					c-2.505,3.936,3.075-3.529-0.145,0.017c-0.96,1.058-2.034,2.008-3.097,2.959c-3.764,3.366,3.699-2.602-0.541,0.414
					c-2.611,1.857-5.415,3.44-8.229,4.964c-2.816,1.525-5.736,2.858-8.663,4.153c4.802-2.124-0.29,0.085-1.091,0.403
					c-1.534,0.608-3.082,1.178-4.629,1.75c-6.485,2.396-13.089,4.465-19.692,6.507c-26.545,8.207-54.598,16.132-78.483,30.631
					c-9.69,5.882-13.285,18.584-7.474,28.504C122.543,175.739,135.669,179.441,145.383,173.544L145.383,173.544z"/>
			</g>
			<g>
				<path fill="#8FCCFF" d="M142.318,168.301c23.758-14.422,52.002-21.177,78.88-29.848c26.323-8.492,64.317-22.418,64.588-55.673
					c0.155-19.043-29.366-19.028-29.521,0c-0.005,0.625-0.617,4.696,0.021,1.318c-0.094,0.498-1.502,4.336-0.18,1.332
					c-0.527,1.197-1.239,2.304-1.939,3.403c-2.242,3.521,1.797-1.938-1.095,1.247c-3.879,4.271-7.064,6.019-13.096,9.287
					c-10.686,5.789-22.772,9.482-35.526,13.425c-26.055,8.056-53.583,15.785-77.032,30.019c-6.865,4.167-9.412,13.167-5.295,20.195
					C126.136,169.855,135.436,172.479,142.318,168.301L142.318,168.301z"/>
			</g>
		</g>
		<g>
			<g>
				<path fill="#FFFFFF" d="M221.111,279.854c1.037,2.917,1.824,5.909,2.499,8.929c0.463,2.07,0.841,4.159,1.185,6.252
					c0.29,1.764,0.863,6.194-0.18-1.656c0.183,1.382,0.332,2.768,0.473,4.153c0.571,5.625,0.749,11.285,0.666,16.936
					c-0.046,3.158-0.224,6.312-0.467,9.461c-0.113,1.464-0.263,2.924-0.419,4.383c-0.618,5.799,0.738-4.645-0.155,1.213
					c-1.098,7.208-2.808,14.312-4.949,21.277c-1.149,3.735-2.496,7.406-3.939,11.036c-0.85,2.071-0.669,1.649,0.544-1.264
					c-0.362,0.831-0.731,1.658-1.108,2.482c-0.951,2.103-1.98,4.167-3.029,6.222c-1.959,3.838-4.142,7.558-6.428,11.209
					c-1.053,1.682-2.164,3.326-3.282,4.965c-0.696,1.021-5.596,7.594-2.186,3.188c-6.073,7.846-13,14.999-20.366,21.63
					c-8.443,7.6-7.71,21.752,0,29.463c8.342,8.342,21.03,7.591,29.463,0c28.42-25.581,48.899-60.093,55.275-97.987
					c3.954-23.501,4.695-50.154-3.417-72.968c-3.801-10.689-14.073-17.729-25.627-14.551
					C225.318,257.071,217.304,269.146,221.111,279.854L221.111,279.854z"/>
			</g>
			<g>
				<path fill="#8FCCFF" d="M226.967,278.239c1.037,2.917,1.823,5.909,2.498,8.929c0.463,2.07,0.841,4.159,1.185,6.252
					c0.181,1.1,0.708,5.006,0.037-0.042c0.184,1.382,0.333,2.768,0.473,4.153c0.571,5.625,0.748,11.285,0.666,16.936
					c-0.046,3.158-0.224,6.312-0.468,9.461c-0.113,1.464-0.263,2.924-0.418,4.383c-0.082,0.743-0.169,1.485-0.262,2.228
					c0.486-4.001-0.002-0.104-0.11,0.601c-1.099,7.207-2.808,14.312-4.95,21.276c-2.836,9.224-4.131,12.065-8.144,19.927
					c-1.959,3.839-4.142,7.559-6.428,11.209c-1.053,1.683-2.164,3.327-3.283,4.966c-0.573,0.831-1.154,1.656-1.744,2.476
					c0.094-0.132-2.894,3.883-1.392,1.941c-6.072,7.846-12.999,14.999-20.366,21.63c-5.982,5.385-5.463,15.411,0,20.875
					c5.91,5.909,14.899,5.378,20.874,0c27.736-24.966,47.493-58.338,53.714-95.308c3.778-22.458,4.33-47.955-3.417-69.739
					c-2.693-7.573-9.97-12.562-18.157-10.31C229.948,262.099,224.27,270.653,226.967,278.239L226.967,278.239z"/>
			</g>
		</g>
		<g>
			<g>
				<path fill="#FFFFFF" d="M92.211,294.446c0.025-3.098,0.198-6.171,0.532-9.251c-0.728,6.715-0.028,0.738,0.258-0.729
					c0.316-1.615,0.728-3.209,1.154-4.797c0.489-1.823,3.873-10.546,1.08-3.995c1.195-2.802,2.659-5.481,4.243-8.08
					c0.579-0.95,1.21-1.867,1.841-2.784c2.055-2.988-3.448,4.124,0.088-0.112c1.828-2.189,3.874-4.186,6.009-6.071
					c1.099-0.969,4.309-3.316-0.94,0.637c1.106-0.833,2.269-1.589,3.437-2.332c1.159-0.737,2.368-1.393,3.582-2.034
					c1.438-0.76,6.254-2.661-0.317-0.008c2.207-0.892,4.5-1.551,6.81-2.109c1.64-0.396,6.857-1.101-0.509-0.136
					c1.36-0.178,2.731-0.253,4.101-0.312c2.434-0.107,4.872,0.053,7.291,0.316c-7.227-0.787-1.956-0.19-0.278,0.18
					c1.425,0.314,2.825,0.737,4.217,1.173c1.068,0.334,2.114,0.736,3.158,1.138c-6.326-2.432-1.141-0.413,0.259,0.3
					c2.898,1.477,5.617,3.28,8.24,5.194c-4.85-3.539-1.173-0.854-0.192-0.017c1.369,1.166,2.661,2.421,3.941,3.683
					c1.34,1.321,2.597,2.725,3.842,4.135c0.639,0.736,1.266,1.482,1.88,2.239c-1.711-2.269-1.876-2.481-0.496-0.639
					c6.781,9.079,17.873,13.702,28.504,7.475c8.969-5.255,14.286-19.384,7.474-28.504c-11.807-15.809-25.719-28.07-44.479-34.828
					c-13.99-5.04-30.974-4.733-44.837,0.534c-33.084,12.57-51.273,45.199-51.556,79.736c-0.093,11.357,9.547,20.833,20.833,20.833
					C82.805,315.279,92.118,305.802,92.211,294.446L92.211,294.446z"/>
			</g>
			<g>
				<path fill="#8FCCFF" d="M86.138,294.446c0.025-3.098,0.198-6.171,0.532-9.251c-0.393,3.623,0.347-1.688,0.476-2.344
					c0.315-1.615,0.728-3.209,1.153-4.797c0.313-1.167,0.687-2.316,1.061-3.464c0.216-0.663,2.125-5.484,0.631-1.981
					c1.195-2.803,2.659-5.481,4.243-8.08c0.58-0.951,1.21-1.868,1.841-2.785c0.963-1.315,0.85-1.201-0.341,0.343
					c0.449-0.57,0.909-1.131,1.378-1.684c1.828-2.189,3.874-4.186,6.01-6.071c0.557-0.492,3.415-2.668,0.289-0.312
					c1.106-0.834,2.268-1.59,3.436-2.333c1.16-0.737,2.369-1.392,3.583-2.034c0.774-0.409,5.084-2.216,1.133-0.621
					c2.207-0.891,4.5-1.551,6.811-2.109c0.903-0.219,5.58-0.939,1.105-0.353c1.36-0.178,2.731-0.253,4.101-0.313
					c2.434-0.107,4.872,0.053,7.291,0.317c-4.361-0.475,0.444,0.2,1.336,0.397c1.426,0.314,2.825,0.736,4.217,1.172
					c1.068,0.334,2.114,0.736,3.158,1.138c-3.63-1.395,1.03,0.567,1.709,0.913c2.897,1.476,5.617,3.28,8.24,5.194
					c-2.666-1.945,0.737,0.678,1.037,0.933c1.369,1.167,2.661,2.421,3.941,3.684c1.34,1.321,2.597,2.725,3.842,4.135
					c0.639,0.735,1.266,1.482,1.879,2.239c-0.76-1.041-0.609-0.844,0.454,0.591c4.804,6.432,12.663,9.707,20.195,5.295
					c6.355-3.723,10.122-13.733,5.295-20.195c-10.787-14.442-23.712-25.863-40.85-32.037c-13.101-4.719-28.634-4.395-41.609,0.535
					c-30.48,11.581-46.838,42.271-47.097,73.88C56.462,313.489,85.982,313.475,86.138,294.446L86.138,294.446z"/>
			</g>
		</g>
		<g>
			<g>
				<path fill="#FFFFFF" d="M167.581,190.515c7.534,15.936,18.783,29.479,28.931,43.758c5.094,7.167,9.827,14.615,14.069,22.317
					c2.337,4.242,4.448,8.606,6.46,13.01c0.5,1.108,0.991,2.221,1.472,3.337c-0.915-2.175-0.915-2.147,0,0.083
					c0.915,2.259,1.762,4.545,2.599,6.834c3.897,10.655,13.998,17.75,25.627,14.551c10.27-2.824,18.456-14.953,14.551-25.627
					c-7.052-19.278-16.149-37.271-27.825-54.146c-10.301-14.887-22.114-28.666-29.906-45.147
					c-4.853-10.265-19.357-12.832-28.504-7.474C164.63,168.117,162.727,180.249,167.581,190.515L167.581,190.515z"/>
			</g>
			<g>
				<path fill="#8FCCFF" d="M172.824,187.45c7.534,15.936,18.783,29.479,28.931,43.758c10.433,14.679,19.19,30.57,25.212,47.032
					c2.761,7.549,9.917,12.575,18.157,10.31c7.276-2.002,13.076-10.595,10.309-18.157c-6.868-18.775-15.841-36.26-27.213-52.695
					c-10.3-14.887-22.114-28.666-29.906-45.146c-3.438-7.273-13.715-9.091-20.195-5.295
					C170.734,171.581,169.385,180.176,172.824,187.45L172.824,187.45z"/>
			</g>
		</g>
		<g>
			<g>
				<path fill="#FFFFFF" d="M158.697,274.25c14.783,13.182,31.635,24.342,51.138,28.963c15.78,3.738,31.854,2.742,47.542-0.881
					c11.827-2.731,23.119-7.322,34.699-10.886c2.643-0.812,5.31-1.538,7.997-2.188c2.08-0.503,11.443-1.875,3.336-0.86
					c2.592-0.324,5.204-0.422,7.813-0.378c1.3,0.021,2.596,0.137,3.889,0.267c-7.608-0.767-1.584-0.138,0.285,0.316
					c11.026,2.679,22.549-3.361,25.627-14.551c2.941-10.691-3.518-22.947-14.551-25.627c-25.948-6.303-49.258,4.949-73.605,12.006
					c-2.903,0.842-5.836,1.572-8.788,2.224c-1.489,0.329-2.988,0.604-4.49,0.87c-5.723,1.012,3.605-0.377-0.17,0.051
					c-3.112,0.354-6.245,0.466-9.374,0.449c-1.604-0.009-3.207-0.109-4.806-0.225c-5.914-0.426,3.223,0.592-0.587-0.022
					c-3.427-0.553-6.786-1.455-10.091-2.5c-1.758-0.555-3.477-1.224-5.188-1.905c5.651,2.251-0.545-0.405-1.648-0.962
					c-3.809-1.923-7.421-4.215-10.94-6.619c-0.945-0.656-1.879-1.327-2.804-2.011c1.86,1.475,1.846,1.461-0.042-0.042
					c-1.983-1.583-3.886-3.263-5.779-4.951c-8.468-7.551-21.093-8.37-29.463,0C151.015,252.47,150.218,266.688,158.697,274.25
					L158.697,274.25z"/>
			</g>
			<g>
				<path fill="#8FCCFF" d="M162.992,269.956c14.016,12.498,29.976,23.021,48.458,27.4c14.681,3.479,29.724,2.489,44.312-0.88
					c11.828-2.731,23.119-7.322,34.7-10.886c2.642-0.813,5.31-1.538,7.997-2.188c1.312-0.317,2.634-0.586,3.958-0.846
					c0.935-0.183,5.583-0.806,0.993-0.231c2.592-0.324,5.204-0.421,7.813-0.378c1.3,0.022,2.596,0.137,3.889,0.267
					c-4.668-0.47,0.807,0.269,1.899,0.534c7.812,1.897,15.976-2.382,18.157-10.31c2.084-7.575-2.492-16.258-10.309-18.157
					c-24.629-5.982-47.264,5.307-70.376,12.006c-2.904,0.842-5.837,1.572-8.789,2.225c-1.489,0.329-2.988,0.604-4.489,0.87
					c-0.755,0.129-1.512,0.249-2.271,0.359c2.02-0.262,2.182-0.292,0.486-0.092c-3.112,0.354-6.245,0.466-9.374,0.449
					c-1.604-0.009-3.207-0.109-4.806-0.225c-0.813-0.065-1.625-0.146-2.435-0.239c1.88,0.267,1.958,0.267,0.232-0.001
					c-3.426-0.552-6.786-1.454-10.091-2.499c-1.757-0.556-3.477-1.224-5.188-1.905c2.475,0.985-2.632-1.339-3.099-1.574
					c-7.982-4.03-14.352-8.828-20.795-14.574c-6-5.35-14.944-5.93-20.874,0C157.548,254.524,156.984,264.599,162.992,269.956
					L162.992,269.956z"/>
			</g>
		</g>
		<g>
			<g>
				<path fill="#FFFFFF" d="M230.397,191.708c-3.93,8.058-8.377,15.843-13.247,23.369c-2.945,4.55-6.093,8.967-9.379,13.277
					c3.772-4.947,1.061-1.406,0.245-0.39c-1.032,1.287-2.093,2.549-3.159,3.808c-1.898,2.242-3.873,4.417-5.88,6.561
					c-4.107,4.386-8.5,8.497-13.093,12.369c-0.996,0.84-2.016,1.65-3.035,2.461c4.929-3.917,0.042-0.108-1.021,0.65
					c-2.494,1.782-5.081,3.428-7.706,5.008c-2.64,1.59-5.373,3.02-8.139,4.375c-1.192,0.584-2.406,1.12-3.62,1.656
					c5.807-2.564,0.019-0.111-1.231,0.34c-2.964,1.069-6.001,1.923-9.058,2.681c-1.773,0.439-3.569,0.783-5.366,1.112
					c-0.91,0.16-1.821,0.305-2.735,0.435c3.237-0.423,3.694-0.507,1.372-0.251c-11.293,1.152-20.833,8.604-20.833,20.833
					c0,10.482,9.514,21.988,20.833,20.833c31.375-3.201,58.331-18.105,80.438-40.288c16.557-16.613,30.319-36.743,40.592-57.807
					c4.978-10.207,2.863-22.449-7.474-28.504C249.664,178.824,235.373,181.506,230.397,191.708L230.397,191.708z"/>
			</g>
			<g>
				<path fill="#8FCCFF" d="M235.641,194.774c-3.93,8.058-8.377,15.843-13.247,23.368c-2.945,4.551-6.093,8.967-9.379,13.277
					c2.118-2.777-0.397,0.458-0.704,0.84c-1.032,1.286-2.094,2.549-3.159,3.808c-1.898,2.242-3.873,4.417-5.88,6.56
					c-4.107,4.386-8.5,8.498-13.093,12.369c-0.996,0.84-2.016,1.65-3.035,2.461c2.478-1.969-1.805,1.282-2.25,1.601
					c-2.494,1.782-5.081,3.427-7.706,5.008c-2.64,1.59-5.372,3.02-8.139,4.375c-1.192,0.583-2.406,1.12-3.62,1.656
					c2.899-1.28-2.16,0.763-2.682,0.951c-2.964,1.07-6,1.924-9.057,2.682c-1.774,0.439-3.569,0.783-5.366,1.112
					c-0.909,0.159-1.821,0.304-2.735,0.435c1.62-0.229,1.539-0.24-0.243-0.035c-8.001,0.817-14.76,6.097-14.76,14.761
					c0,7.427,6.741,15.579,14.76,14.761c53.595-5.47,93.282-48.943,115.786-95.088c3.527-7.231,2.028-15.905-5.295-20.195
					C249.292,185.645,239.166,187.545,235.641,194.774L235.641,194.774z"/>
			</g>
		</g>
		<g>
			<g>
				<path fill="#FFFFFF" d="M116.279,433.047c-2.607-2.243-5.087-4.583-7.449-7.084c-1.09-1.155-2.103-2.38-3.111-3.605
					c3.366,4.09,0.309,0.226-0.274-0.643c-1.562-2.328-2.851-4.824-4.018-7.368c2.637,5.751-0.333-1.958-0.732-3.685
					c-0.332-1.438-0.712-5.835-0.018,0.587c-0.133-1.23-0.156-2.469-0.179-3.704c-0.023-1.231,0.063-2.462,0.148-3.689
					c0.314-4.522-0.879,5.126-0.053,0.654c0.455-2.465,1.213-4.864,2.051-7.223c1.536-4.324-2.058,4.455-0.087,0.252
					c0.747-1.592,1.62-3.12,2.506-4.637c0.682-1.167,1.437-2.289,2.19-3.41c0.641-0.954,3.595-4.693,0.06-0.229
					c1.79-2.261,3.767-4.366,5.786-6.422c2.113-2.152,4.386-4.143,6.693-6.082c4.042-3.396-3.582,2.616,0.716-0.585
					c1.284-0.956,2.608-1.857,3.931-2.76c4.213-2.871,8.648-5.363,13.252-7.546c1.228-0.582,5.249-2.264-0.626,0.192
					c1.112-0.465,2.24-0.893,3.367-1.32c2.682-1.018,5.417-1.89,8.166-2.708c4.858-1.446,9.82-2.524,14.809-3.403
					c1.271-0.224,2.547-0.412,3.823-0.602c-6.375,0.944-1.733,0.25-0.387,0.1c2.597-0.289,5.205-0.474,7.813-0.624
					c5.244-0.303,10.503-0.257,15.747,0.004c2.617,0.13,5.227,0.367,7.832,0.642c1.338,0.141,6,0.842-0.368-0.075
					c1.711,0.246,3.414,0.551,5.113,0.863c5.026,0.927,9.976,2.227,14.841,3.782c2.383,0.762,4.724,1.645,7.047,2.571
					c-6.372-2.543,1.352,0.73,2.84,1.484c2.154,1.093,4.24,2.313,6.294,3.581c1.413,0.872,8.059,5.768,2.583,1.522
					c4.006,3.105,7.594,6.717,10.805,10.631c7.211,8.791,22.028,7.435,29.463,0c8.617-8.616,7.195-20.691,0-29.463
					c-14.576-17.771-36.95-28.511-59.008-33.51c-23.988-5.437-49.088-4.961-73.03,0.419c-24.25,5.449-47.351,18.23-64.191,36.595
					c-9.254,10.092-16.713,22.27-19.951,35.669c-3.629,15.021-1.16,29.189,4.775,43.156c4.464,10.505,12.804,19.769,21.366,27.134
					c8.601,7.398,20.986,8.477,29.463,0C123.855,454.935,124.895,440.458,116.279,433.047L116.279,433.047z"/>
			</g>
			<g>
				<path fill="#8FCCFF" d="M111.985,437.341c-4.771-4.104-9.389-8.991-11.783-12.561c-1.562-2.328-2.851-4.824-4.018-7.368
					c1.323,2.884-0.251-1.059-0.369-1.42c-0.397-1.219-0.688-2.469-0.976-3.716c-0.137-0.593-0.63-4.687-0.235-1.027
					c-0.133-1.23-0.156-2.469-0.178-3.704c-0.023-1.231,0.063-2.462,0.148-3.689c0.284-4.088-0.583,3.083,0.164-0.96
					c0.455-2.465,1.214-4.865,2.051-7.223c1.403-3.95-1.278,2.646,0.525-1.199c0.746-1.592,1.62-3.12,2.506-4.636
					c0.681-1.167,1.437-2.289,2.19-3.41c0.109-0.163,2.819-3.744,1.009-1.458c1.79-2.261,3.767-4.367,5.785-6.422
					c2.113-2.152,4.386-4.144,6.693-6.083c3.813-3.204-2.116,1.491,1.945-1.534c1.284-0.956,2.608-1.857,3.931-2.759
					c4.213-2.872,8.648-5.364,13.252-7.547c0.511-0.242,4.162-1.814,0.825-0.419c1.112-0.466,2.24-0.893,3.367-1.32
					c2.682-1.019,5.418-1.89,8.166-2.708c4.858-1.446,9.82-2.525,14.81-3.404c1.271-0.224,2.547-0.412,3.823-0.602
					c-3.545,0.525,0.748-0.063,1.228-0.117c2.597-0.289,5.205-0.474,7.813-0.624c5.244-0.303,10.503-0.257,15.747,0.004
					c2.617,0.13,5.227,0.367,7.832,0.642c0.471,0.05,4.777,0.649,1.247,0.142c1.711,0.246,3.413,0.551,5.113,0.864
					c5.026,0.926,9.976,2.227,14.841,3.781c2.383,0.762,4.725,1.645,7.047,2.571c-3.242-1.293,0.541,0.273,0.999,0.483
					c1.111,0.509,2.202,1.062,3.292,1.614c2.155,1.092,4.24,2.313,6.295,3.581c1.016,0.626,2.003,1.297,2.99,1.969
					c0.451,0.307,3.643,2.689,0.822,0.503c4.006,3.105,7.594,6.716,10.805,10.631c5.109,6.229,15.606,5.268,20.874,0
					c6.105-6.105,5.098-14.66,0-20.875c-29.164-35.555-84.065-40.981-126.129-31.529c-23.306,5.237-45.321,17.377-61.512,35.033
					c-8.563,9.339-15.396,20.601-18.389,32.99c-3.211,13.287-1.099,26.094,4.163,38.477c4.281,10.072,12.213,18.847,20.417,25.904
					c6.093,5.241,14.869,6.005,20.874,0C117.352,452.849,118.089,442.592,111.985,437.341L111.985,437.341z"/>
			</g>
		</g>
		<g>
			<g>
				<path fill="#FFFFFF" d="M167.972,385.346c-3.728-2.152-7.349-4.475-10.916-6.883c-1.999-1.35-3.968-2.743-5.927-4.15
					c-1.196-0.859-2.38-1.735-3.562-2.613c-1.139-0.847-5.624-4.31-0.374-0.24c-10.065-7.801-19.601-16.301-28.458-25.449
					c-4.564-4.714-8.875-9.668-12.931-14.824c3.713,4.72,0.896,1.11,0.164,0.112c-0.999-1.362-1.955-2.755-2.903-4.152
					c-1.846-2.722-3.543-5.54-5.148-8.41c-1.349-2.413-2.551-4.904-3.673-7.43c2.747,6.183,0.524,1.08,0.019-0.343
					c-0.496-1.398-0.91-2.823-1.308-4.251c-0.389-1.396-0.686-2.815-0.966-4.237c-0.724-3.672,0.536,5.846,0.049,0.275
					c-0.242-2.767-0.13-5.548,0.172-8.304c1.238-11.312-10.414-20.833-20.833-20.833c-12.292,0-19.598,9.548-20.833,20.833
					c-3.244,29.638,17.073,57.611,36.006,78.146c17.33,18.795,38.224,35.931,60.391,48.731c9.838,5.681,22.747,2.354,28.504-7.475
					C181.162,404.093,177.791,391.016,167.972,385.346L167.972,385.346z"/>
			</g>
			<g>
				<path fill="#8FCCFF" d="M164.907,390.59c-3.728-2.152-7.348-4.475-10.915-6.883c-1.999-1.35-3.969-2.743-5.928-4.15
					c-1.196-0.859-2.379-1.735-3.562-2.613c-0.533-0.396-4.522-3.454-1.602-1.19c-10.066-7.8-19.602-16.3-28.459-25.449
					c-4.564-4.714-8.875-9.668-12.931-14.823c2.013,2.559-0.563-0.814-0.786-1.118c-0.999-1.361-1.955-2.754-2.903-4.151
					c-1.846-2.722-3.543-5.54-5.147-8.41c-1.35-2.413-2.551-4.904-3.673-7.43c1.56,3.511-0.35-1.109-0.593-1.794
					c-0.496-1.397-0.91-2.823-1.307-4.251c-0.389-1.396-0.686-2.815-0.966-4.236c-0.273-1.66-0.26-1.406,0.04,0.76
					c-0.085-0.698-0.154-1.397-0.207-2.1c-0.242-2.767-0.13-5.548,0.171-8.304c0.877-8.015-7.378-14.761-14.76-14.761
					c-8.708,0-13.885,6.766-14.76,14.761c-3.073,28.068,16.304,54.412,34.228,73.852c16.993,18.431,37.421,35.228,59.162,47.782
					C166.523,425.617,181.382,400.104,164.907,390.59L164.907,390.59z"/>
			</g>
		</g>
	</g>
</g>
<g id="Short">
	<g>
		<g>
			<path fill="#5B80A5" d="M367.229,295.001c-14.115,0-23.972-2.766-24.384-2.884l-1.875-0.535l-2.739-39.708l4.663,3.018
				c5.32,3.442,14.498,5.581,23.951,5.581c6.012,0,11.858-0.841,16.905-2.434c7.427-2.345,13.336-10.03,19.592-18.167
				c8.718-11.341,18.6-24.194,34.98-24.194c2.058,0,4.2,0.207,6.366,0.615c4.858,0.917,6.308,3.302,6.669,5.142
				c0.609,3.101-1.555,6.426-6.094,9.365c-9.917,6.417-17.817,13.767-24.14,28.78C414.716,274.785,402.159,295.001,367.229,295.001z
				"/>
			<path fill="#FFFFFF" d="M438.322,218.456c1.858,0,3.803,0.181,5.852,0.567c6.712,1.268,5.378,5.69-0.421,9.444
				c-9.444,6.111-18.335,13.757-25.19,30.034c-5.267,12.5-16.333,33.723-51.333,33.723c-13.889,0-23.622-2.777-23.622-2.777
				l-2.223-32.223c5.888,3.811,15.488,6.027,25.46,6.027c6.022,0,12.18-0.809,17.74-2.562
				C403.906,254.59,412.097,218.456,438.322,218.456 M438.322,212.9c-17.749,0-28.073,13.43-37.183,25.278
				c-5.982,7.781-11.632,15.13-18.226,17.212c-4.779,1.508-10.335,2.305-16.068,2.305c-8.947,0-17.546-1.968-22.442-5.136
				l-9.325-6.034l0.764,11.08l2.223,32.223l0.269,3.891l3.75,1.07c0.428,0.122,10.647,2.99,25.146,2.99
				c16.647,0,30.27-4.562,40.488-13.56c8.508-7.492,13.001-16.527,15.965-23.562c6.048-14.36,13.604-21.39,23.089-27.527
				c7.499-4.854,7.8-9.748,7.312-12.232c-0.431-2.194-2.157-6.066-8.878-7.335C442.867,213.123,440.552,212.9,438.322,212.9
				L438.322,212.9z"/>
		</g>
		<ellipse fill="#FFFFFF" cx="434.028" cy="223.234" rx="3.75" ry="2.5"/>
		<ellipse fill="#FFFFFF" cx="422.361" cy="229.578" rx="3.75" ry="2.5"/>
		<ellipse fill="#FFFFFF" cx="415.232" cy="238.05" rx="3.75" ry="2.5"/>
		<ellipse fill="#FFFFFF" cx="408.982" cy="247.634" rx="3.75" ry="2.5"/>
		<ellipse fill="#FFFFFF" cx="401.854" cy="256.661" rx="3.75" ry="2.5"/>
		<ellipse fill="#FFFFFF" cx="392.223" cy="264.349" rx="3.75" ry="2.5"/>
		<ellipse fill="#FFFFFF" cx="378.751" cy="269.349" rx="3.75" ry="2.5"/>
		<ellipse fill="#FFFFFF" cx="365.232" cy="269.349" rx="3.75" ry="2.5"/>
		<ellipse fill="#FFFFFF" cx="351.667" cy="267.216" rx="3.75" ry="2.5"/>
	</g>
</g>
<g id="Border">
	<g>
		
			<line fill="none" stroke="#FFFFFF" stroke-width="33.3333" stroke-miterlimit="10" x1="332.681" y1="0" x2="332.681" y2="500.001"/>
		
			<line fill="none" stroke="#5B80A5" stroke-width="22.2222" stroke-miterlimit="10" x1="332.681" y1="0" x2="332.681" y2="500.001"/>
	</g>
</g>
</svg>
